<svg width="119" height="95" viewBox="0 0 119 95" fill="none" xmlns="http://www.w3.org/2000/svg">
<g clip-path="url(#clip0_65_17)">
<path d="M20.6627 83.9653V84.4455L20.6482 84.6926C20.6385 84.8769 20.6094 85.0419 20.5609 85.1876L20.5174 85.522L20.488 85.5365L20.459 85.6822L20.488 85.6967L20.4301 85.9297V85.9876C20.4301 86.2884 20.3572 86.5697 20.2115 86.8316C20.105 87.1809 19.9789 87.5303 19.8332 87.8796C19.7946 88.0154 19.751 88.1463 19.7024 88.2724C19.6442 88.4374 19.5812 88.5878 19.5133 88.7235C19.3483 89.0726 19.1834 89.3151 19.0187 89.4512C18.873 89.6838 18.7178 89.9165 18.553 90.1494C18.4752 90.2852 18.3781 90.4113 18.2616 90.5277L18.1019 90.7314L17.9272 90.935C17.8011 91.0904 17.6847 91.2263 17.5779 91.3427C17.2967 91.6435 17.0348 91.8714 16.7923 92.0265L16.5737 92.2156C16.4672 92.3417 16.3363 92.4387 16.181 92.5066L15.9045 92.7107C15.6815 92.9336 15.4002 93.1081 15.0605 93.2342L14.8279 93.3505C14.7115 93.4573 14.5804 93.5254 14.4347 93.5546L13.9546 93.7727C13.712 93.9278 13.4404 94.0296 13.1396 94.0782L12.9215 94.1365C12.7468 94.2334 12.5868 94.2818 12.4414 94.2818H12.3979L11.8884 94.3985C11.5876 94.4857 11.3306 94.544 11.1173 94.5732C10.933 94.6022 10.7583 94.6167 10.5933 94.6167C10.5061 94.6167 10.4188 94.6118 10.3313 94.6022L9.79321 94.6167L9.80769 94.5877H9.53121V94.6167L9.08006 94.5877C8.62421 94.578 8.25556 94.5343 7.97411 94.4565L7.45011 94.3402H7.40665C7.27089 94.3402 7.13996 94.3014 7.01386 94.2239L6.88265 94.18L6.91204 94.1655C6.88279 94.1462 6.84885 94.1317 6.81022 94.1221L6.76634 94.151L6.51883 94.0637C6.44129 94.0444 6.36376 94.0153 6.28622 93.9764C5.72359 93.7631 5.19007 93.5012 4.68566 93.1908C4.52065 93.1519 4.39455 93.0597 4.30735 92.9143L4.29245 92.9288L4.1182 92.8125L4.14717 92.7831L4.03087 92.6958L4.00148 92.7251L3.69602 92.4776C3.5506 92.4291 3.41001 92.3369 3.27426 92.2011L3.09959 92.012L2.93941 91.8228L2.72128 91.5898L2.75026 91.6047L2.64844 91.4735L2.67741 91.5464C2.45445 91.3135 2.25081 91.0757 2.06649 90.8332H2.08098L1.97916 90.7024H1.96426C1.78987 90.4695 1.61534 90.2027 1.44067 89.9019C1.18847 89.6207 0.989517 89.2376 0.843824 88.7525L0.742004 88.5199C0.625559 88.3356 0.552851 88.1366 0.523878 87.9231L0.494904 87.8212V87.8067L0.480418 87.7194L0.465518 87.7049L0.320238 87.1664C0.271673 87.0792 0.247391 86.9871 0.247391 86.89V86.8465L0.189031 86.5845L0.232905 86.628C0.232905 86.5408 0.213451 86.4632 0.174544 86.3953L0.160058 86.4098L0.145571 86.3225C0.0484424 86.0217 -0.00012207 85.6627 -0.00012207 85.2455V85.0274C0.0194693 84.5716 0.0825203 84.1399 0.189031 83.7323L0.232905 83.5142C0.25222 83.3202 0.295818 83.1359 0.363698 82.9612L0.436544 82.7282L0.523878 82.4811C0.5821 82.2871 0.640322 82.1124 0.698544 81.9571C0.863553 81.5691 1.04305 81.2781 1.23703 81.0842L1.22254 81.0693L1.38231 80.8366H1.3968C1.51324 80.5455 1.67825 80.3273 1.89182 80.1818C2.01793 80.0364 2.14403 79.9007 2.27013 79.7746C2.37664 79.6192 2.50757 79.4737 2.66292 79.3379C2.84725 79.1729 3.01695 79.0661 3.17202 79.0175L3.49238 78.7994C3.57958 78.6637 3.70568 78.5909 3.87069 78.5813L4.07433 78.465L4.1033 78.494L4.27797 78.3776H4.26348L4.32184 78.3483C4.43828 78.2707 4.56922 78.2175 4.71463 78.1885V78.1736C4.93786 78.0961 5.17075 78.0233 5.4133 77.9555C5.54906 77.8779 5.68965 77.8392 5.83507 77.8392H5.87894C6.33478 77.7517 6.80042 77.708 7.27586 77.708H7.53744C7.61526 77.708 7.70259 77.7129 7.79944 77.7229L7.9886 77.7518L8.17775 77.7663L8.48321 77.8098V77.8247L8.70175 77.8681L8.71624 77.8536C9.3564 77.9798 9.88509 78.1544 10.3023 78.3776C10.5545 78.4938 10.7971 78.6199 11.0299 78.756C11.1171 78.7753 11.2772 78.8867 11.5101 79.0904L11.6264 79.1632V79.1777L11.7576 79.3089C11.7576 79.2893 11.7526 79.2747 11.7427 79.2651C11.8691 79.3426 11.9662 79.4494 12.0341 79.5854C12.102 79.6726 12.1359 79.755 12.1359 79.8325C12.1359 79.9101 12.1116 79.9829 12.063 80.0511C12.0241 80.1383 11.9756 80.2158 11.9174 80.2837L11.801 80.4C11.7525 80.4485 11.7137 80.4776 11.6847 80.4873L11.5829 80.6036L11.5246 80.662L11.4517 80.7638L11.3793 80.8511C11.3211 80.9287 11.2677 80.9965 11.2191 81.0548C11.0833 81.2005 10.9524 81.2781 10.8263 81.2878C10.7681 81.3168 10.705 81.3313 10.6372 81.3313C10.4625 81.3313 10.2684 81.2489 10.0548 81.0842C10.0744 81.0938 10.0938 81.0986 10.1132 81.0986H10.1276L10.0258 81.0548L9.93849 81.0113C9.29832 80.662 8.73569 80.4194 8.2506 80.2837C7.93051 80.2158 7.6056 80.1818 7.27586 80.1818H7.05732C6.96046 80.2108 6.82953 80.2351 6.66453 80.2547L6.46088 80.2692L6.25724 80.2982L6.1844 80.3126L6.02422 80.342H6.0387L5.87894 80.4C5.76249 80.4485 5.64122 80.4923 5.51512 80.5312C5.26291 80.628 5.0252 80.7493 4.80197 80.895C4.64662 81.0308 4.48657 81.1471 4.32184 81.2439L4.14717 81.3896L3.95802 81.5933L3.75438 81.8114C3.57971 81.986 3.45361 82.1364 3.37607 82.2625H3.39056L3.31771 82.3793C3.27881 82.5536 3.1963 82.6991 3.0702 82.8155C3.00232 82.9416 2.93927 83.0775 2.88105 83.2232C2.86173 83.3394 2.82296 83.446 2.76474 83.5431C2.72583 83.6789 2.68707 83.8245 2.64844 83.9798L2.59008 84.6201C2.5611 84.8916 2.54179 85.1049 2.53213 85.26L2.5611 85.6532L2.60456 86.0605L2.61946 86.0895L2.6919 86.5116C2.76971 86.7056 2.84738 86.9675 2.92492 87.2972L3.04123 87.5886L3.24487 87.9959L3.43402 88.3887C3.59903 88.6991 3.75907 88.9562 3.91415 89.1598C3.97237 89.218 4.02093 89.286 4.05984 89.3638C4.27314 89.6354 4.49623 89.8827 4.72912 90.106L5.10743 90.4259L5.50022 90.7608C5.67489 90.8869 5.84955 91.0032 6.02422 91.1097C6.131 91.1389 6.22317 91.1923 6.3007 91.2699C6.44612 91.3474 6.60616 91.4251 6.78083 91.5029C6.8683 91.5319 6.95081 91.5658 7.02834 91.6047C7.24164 91.7016 7.45508 91.7791 7.66865 91.8373V91.8663L7.79944 91.9102L7.82842 91.8812L7.97411 91.9247L7.9886 91.9536C8.05648 91.9829 8.12932 91.9975 8.20714 91.9975L8.23611 91.983L8.43975 92.0265L8.81806 92.0555L9.21085 92.1138C9.46305 92.1331 9.69594 92.1428 9.90951 92.1428C10.0938 92.0945 10.3266 92.0606 10.6078 92.041L10.9716 92.012L11.3209 91.983L11.6264 91.9247H11.6409L12.1794 91.7794L12.383 91.721C12.6159 91.6435 12.8584 91.5465 13.1106 91.43C13.2078 91.3622 13.3194 91.3039 13.4455 91.2554L13.6052 91.1825L13.7799 91.1097L13.9691 91.0079L13.9984 91.0224C14.0567 91.0127 14.1051 90.9885 14.1437 90.9499L14.1148 90.9205L14.1582 90.8916L14.1876 90.906L14.2455 90.8481H14.2311L14.2604 90.8332C14.3573 90.7168 14.5027 90.5907 14.6967 90.4549L14.9587 90.2951L15.1917 90.1349L15.4388 89.9168L15.4678 89.9313L15.5262 89.8729V89.8585L15.599 89.7711C15.7251 89.5965 15.9046 89.3782 16.1375 89.1163L16.4285 88.796L16.705 88.476C16.8311 88.2917 16.9475 88.1025 17.0543 87.9086C17.1026 87.7339 17.1898 87.5739 17.3159 87.4284C17.578 86.9044 17.7818 86.3611 17.9272 85.7985L17.9562 85.6967L18.058 85.1731H18.0725C18.0824 85.0274 18.097 84.8576 18.1164 84.6636L18.1892 84.1545C18.1989 84.038 18.2037 83.9168 18.2037 83.7907C18.2037 83.6742 18.1989 83.5529 18.1892 83.4268C18.1795 83.359 18.1747 83.2861 18.1747 83.2083V83.1065C18.1648 82.8835 18.1453 82.6799 18.1164 82.4956L18.0725 82.3209L18.029 82.1607C18.0097 82.0539 18.0001 81.9618 18.0001 81.8842V81.8114C17.9222 81.501 17.8301 81.2052 17.7236 80.924C17.675 80.8368 17.6361 80.7446 17.6068 80.6475C17.4807 80.366 17.3353 80.0992 17.1706 79.847C17.0445 79.7598 16.962 79.6385 16.9231 79.4832C16.7388 79.231 16.5301 78.9886 16.2973 78.756L15.9334 78.465L15.5551 78.1885C15.2447 77.9459 14.9973 77.7422 14.813 77.5772L14.4057 77.3152C14.1825 77.2666 13.94 77.1308 13.6781 76.9079C13.4355 76.7914 13.1882 76.6702 12.936 76.5441C12.7712 76.5441 12.6306 76.481 12.5142 76.3549C12.3395 76.2774 12.0873 76.1804 11.7576 76.0639L11.3499 75.9327L10.9136 75.7875C10.215 75.5449 9.72505 75.2877 9.44388 75.0159C8.99769 74.822 8.59993 74.6378 8.2506 74.4634C8.12449 74.4148 8.00322 74.3518 7.88678 74.2742L7.68314 74.1575C7.3338 74.0217 7.04283 73.8472 6.81022 73.6339L6.5627 73.4593L6.59168 73.4448L6.46088 73.328L6.41701 73.3574L6.4315 73.3719L6.09706 73.1099L6.14052 73.0954L6.05319 73.0371C6.04353 73.0371 6.0387 73.0419 6.0387 73.0516C6.0387 73.0615 6.04353 73.0713 6.05319 73.0809L5.87894 72.9353C5.51995 72.7316 5.21435 72.4115 4.96215 71.975C4.8068 71.7907 4.6709 71.6015 4.55445 71.4075C4.47692 71.2911 4.40904 71.1698 4.35081 71.0437C4.13752 70.6169 3.97264 70.1803 3.8562 69.7341C3.76873 69.3848 3.72499 69.0744 3.72499 68.8029C3.72499 68.6378 3.73962 68.4875 3.76887 68.3517V68.2933L3.78335 67.8277L3.79784 67.8422V67.7114L3.81233 67.653L3.82681 67.5078C3.90463 66.9255 4.01624 66.4113 4.16166 65.9651C4.3653 65.354 4.6273 64.8981 4.94766 64.5976L5.13681 64.3211C5.22401 64.1561 5.34514 64.0154 5.50022 63.8989C5.62632 63.7535 5.74277 63.6274 5.84955 63.5206C5.86914 63.5499 5.8886 63.5645 5.90791 63.5645C5.93688 63.5645 5.966 63.516 5.99524 63.4188L5.98076 63.4043L6.00973 63.3749H6.02422C6.10176 63.2684 6.20358 63.1618 6.32968 63.055C6.43646 62.9871 6.56257 62.9096 6.70798 62.8224L7.04283 62.6039C7.37257 62.3809 7.6394 62.2451 7.84332 62.1966L8.09042 62.0948C8.44941 61.8908 8.84717 61.7744 9.2837 61.7454L9.35654 61.7309L9.34206 61.7454L9.41449 61.7309L9.38552 61.7164C9.64738 61.6775 9.92386 61.6484 10.215 61.6291L10.2005 61.6726H10.3896L10.4041 61.6146H10.448C10.4381 61.6339 10.4331 61.6484 10.4331 61.6581H10.6516L10.6661 61.6436L10.5933 61.6146L11.1173 61.6436V61.6581L11.1901 61.6726V61.6581L11.3354 61.6726H11.4083C11.6216 61.6726 11.8252 61.7163 12.0192 61.8038C12.1938 61.8521 12.3491 61.9005 12.4848 61.9491C12.4655 61.9587 12.4558 61.9684 12.4558 61.978C12.4558 61.988 12.4898 61.9929 12.5577 61.9929L12.5721 61.978L12.8341 62.0803L12.878 62.0948L12.8635 62.0803L12.9654 62.1237C13.1301 62.1626 13.2755 62.2403 13.4016 62.3568C13.8964 62.6186 14.2893 62.8999 14.5804 63.2007H14.6094L14.7551 63.346C15.4049 63.8214 15.822 64.4083 16.0063 65.1067L16.1665 65.4995C16.3994 66.0138 16.5158 66.4893 16.5158 66.9258V66.9838C16.5351 67.1681 16.5448 67.3379 16.5448 67.4933C16.574 67.5708 16.5886 67.6483 16.5886 67.7259C16.5886 67.8134 16.5692 67.9007 16.5303 67.9879C16.501 68.4148 16.4332 68.8318 16.3266 69.2391C16.3266 69.4234 16.2684 69.5884 16.152 69.7341C16.0645 69.967 15.9627 70.1901 15.8465 70.4034C15.7883 70.5781 15.701 70.7333 15.5845 70.8691L15.4678 71.0292L15.3515 71.2039C15.245 71.3397 15.1432 71.4318 15.046 71.4804C14.9588 71.5579 14.8763 71.5967 14.7985 71.5967C14.721 71.5967 14.6483 71.5676 14.5804 71.5094C14.4833 71.4801 14.4008 71.4315 14.3329 71.3637L13.7509 70.7962L13.7799 70.7672L13.722 70.6944L13.6926 70.7383L13.4455 70.4763C13.329 70.3598 13.2708 70.2239 13.2708 70.0686V70.0251L13.2998 70.0106L13.3143 69.8939L13.2853 69.8794C13.3532 69.734 13.4357 69.5982 13.5328 69.4721C13.6007 69.3168 13.6782 69.1664 13.7654 69.021L13.7799 69.0065L13.8238 68.9192C13.9885 68.502 14.0709 68.0703 14.0709 67.6241V67.5512L14.1003 67.5657L14.0858 67.4639L14.0709 67.4788C14.0612 67.1391 13.9982 66.7996 13.8817 66.4602C13.8238 66.363 13.7802 66.2611 13.7509 66.1543C13.6248 65.8828 13.4648 65.6306 13.2708 65.3977L13.1545 65.2959L13.0527 65.194C12.9652 65.0873 12.8924 65.0146 12.8341 64.9759C12.6791 64.8885 12.5433 64.7865 12.4269 64.67C12.0486 64.4374 11.6411 64.2726 11.2046 64.1754H11.1173C11.0202 64.1754 10.9134 64.156 10.7969 64.1171C10.7001 64.1074 10.6079 64.1026 10.5204 64.1026C10.3265 64.1026 10.1325 64.1172 9.93849 64.1465L9.69098 64.1899C9.41946 64.2385 9.16242 64.3162 8.91988 64.4229L8.7746 64.4958L8.6289 64.5827C8.51246 64.6409 8.41064 64.6895 8.32344 64.7284L8.09042 64.8741C7.98391 65.0002 7.86263 65.0972 7.7266 65.1651C7.47439 65.3784 7.25613 65.616 7.0718 65.8778C6.97495 66.0332 6.85864 66.2805 6.72288 66.6199L6.5627 66.9982C6.49482 67.1343 6.43177 67.2556 6.37355 67.3621C6.33464 67.4978 6.30553 67.6239 6.28622 67.7404L6.27173 67.7114V67.8716C6.27173 68.0267 6.26194 68.1819 6.24234 68.3372V68.5119C6.28125 68.6766 6.3007 68.8415 6.3007 69.0065V69.1083C6.34927 69.3605 6.42198 69.5982 6.51883 69.8215H6.48986L6.59168 69.9523C6.68881 70.1559 6.81974 70.3549 6.98447 70.5491C7.13016 70.646 7.25144 70.7769 7.34829 70.9419C7.50364 71.0873 7.76564 71.2668 8.13429 71.4804L8.54157 71.7275C8.68699 71.8246 8.81309 71.9168 8.91988 72.004C9.15276 72.1397 9.4098 72.2756 9.69098 72.4117C9.79776 72.431 9.89489 72.4746 9.98236 72.5425L10.4041 72.7316C10.5495 72.7509 10.7339 72.814 10.9571 72.9208C11.1221 72.9983 11.2919 73.0905 11.4666 73.1973L11.9902 73.4299C12.5724 73.5463 13.0915 73.7695 13.5473 74.0996L13.8383 74.2448C13.8479 74.2644 13.8624 74.2742 13.8817 74.2742H13.8966C14.1778 74.4003 14.464 74.5409 14.7551 74.696L14.8279 74.7399L14.9003 74.7688L14.9587 74.8268L14.9732 74.8123L15.4099 75.0453C15.5263 75.084 15.6233 75.1422 15.7008 75.22L16.0646 75.4526C16.2297 75.5012 16.3654 75.5885 16.4719 75.7146C16.7048 75.8697 16.9183 76.0249 17.1122 76.1802C17.2772 76.2481 17.4664 76.3791 17.6797 76.573C17.864 76.7477 18.0144 76.9175 18.1308 77.0826L18.1453 77.1115L18.2037 77.1844L18.2182 77.1699L18.3639 77.3296C18.4607 77.4268 18.5479 77.5287 18.6255 77.6355L18.844 77.8971C19.067 78.1493 19.2561 78.3919 19.4115 78.6247C19.6054 78.9159 19.7315 79.1875 19.7898 79.4397C19.9548 79.7791 20.0954 80.1331 20.2115 80.5018C20.3087 80.6571 20.3572 80.8173 20.3572 80.9823V81.0258C20.3862 81.0548 20.4007 81.0839 20.4007 81.1131C20.4007 81.1324 20.391 81.1469 20.3717 81.1566L20.4007 81.2588H20.4156C20.5221 81.734 20.5948 82.2238 20.6337 82.7282C20.6726 82.8835 20.6921 83.0534 20.6921 83.2377V83.6595L20.6627 83.9653Z" fill="white"/>
<path d="M29.2773 78.2609H29.2479C29.2382 78.3484 29.2237 78.4309 29.2044 78.5084L29.1316 78.7559C29.0733 78.911 29.0006 79.0516 28.9134 79.1777L28.8845 79.2505H28.8406C28.7338 79.3766 28.6125 79.4833 28.4768 79.5705L28.5206 79.5854L28.4333 79.6289V79.5999L28.2442 79.6872C28.0791 79.7065 27.9191 79.7501 27.764 79.818H25.9449V79.5125C25.9642 79.464 25.9739 79.4106 25.9739 79.3524C25.9739 79.2845 25.9642 79.2069 25.9449 79.1198V78.7559C25.9739 78.4163 25.9884 78.0282 25.9884 77.5916C25.9884 77.1648 25.9739 76.6895 25.9449 76.1657V76.0494L25.9594 75.7874L25.9739 75.5399C25.9739 75.3459 25.9642 75.1713 25.9449 75.0159V74.7398C25.9642 74.6331 25.9739 74.5359 25.9739 74.4485C25.9739 74.3613 25.9642 74.2837 25.9449 74.2158V73.5027L25.9739 73.2991L25.9884 73.0954V72.9936C25.9884 72.8771 25.9739 72.7752 25.9449 72.6877V72.3967H26.1775C26.294 72.455 26.4929 72.4841 26.7744 72.4841C27.0169 72.4744 27.2109 72.4453 27.3563 72.3967H27.5894C28.0259 72.3967 28.4042 72.5471 28.7243 72.8479L28.7388 72.8189L28.8551 72.9352C28.8551 72.9449 28.8502 72.9595 28.8406 72.9791L28.899 73.0515C28.9572 73.2165 29.0395 73.3669 29.1461 73.5027L29.2044 73.6774V73.6629L29.2334 73.7357C29.2237 73.7357 29.2189 73.7309 29.2189 73.7212C29.2382 73.8277 29.2479 73.9392 29.2479 74.0557V75.4965C29.2092 75.574 29.1899 75.6806 29.1899 75.8164V75.9621L29.2189 76.2237C29.2382 76.3208 29.2479 76.3985 29.2479 76.4567V77.8971L29.2773 78.0862C29.2869 78.1155 29.2917 78.1446 29.2917 78.1736C29.2917 78.2028 29.2869 78.2319 29.2773 78.2609ZM31.7362 78.6102L31.7507 78.4501L31.7652 78.2754C31.7848 78.1203 31.7946 77.9846 31.7946 77.8681V77.6645C31.7946 77.4412 31.7703 77.2714 31.7218 77.155V76.282H31.7073V76.1368H31.7218V75.9621C31.7607 75.7485 31.7801 75.5351 31.7801 75.3218V75.1906C31.7801 74.9869 31.7607 74.8221 31.7218 74.696V73.881H31.7073V73.7212C31.7073 73.4398 31.6635 73.1342 31.5761 72.8044C31.45 72.3776 31.2851 72.0573 31.0815 71.8438C30.9943 71.708 30.9021 71.5819 30.805 71.4655C30.7564 71.3007 30.6546 71.1893 30.4995 71.131C30.4024 71.0242 30.2956 70.9273 30.1792 70.8401C30.092 70.714 29.9223 70.5781 29.67 70.4324C29.4178 70.2773 29.219 70.1998 29.0736 70.1998C28.9183 70.1415 28.7484 70.0881 28.5641 70.0396C28.4866 70.0106 28.4041 69.9961 28.3166 69.9961C28.1323 69.9572 27.9626 69.9378 27.8075 69.9378H27.7785C27.6135 69.9085 27.4194 69.8939 27.1962 69.8939C27.0118 69.8939 26.813 69.9037 26.5997 69.9233H26.4106V69.9378L26.3816 69.9667H26.2214C26.2118 69.9474 26.2069 69.9329 26.2069 69.9233H26.0468C25.9982 69.9037 25.9303 69.8939 25.8431 69.8939C25.7656 69.8939 25.6734 69.9037 25.5666 69.9233H25.4064L25.392 69.9378H25.2463L25.1444 69.9233L24.868 69.9088L24.5915 69.8794H24.4607C24.2957 69.8794 24.1599 69.894 24.0534 69.9233C23.6848 70.0008 23.4761 70.2434 23.4276 70.6509C23.4083 70.8545 23.3986 71.0776 23.3986 71.3202C23.3986 71.6792 23.4228 72.0769 23.471 72.5135V72.8044C23.4614 72.9109 23.4566 73.0079 23.4566 73.0954C23.4566 73.1826 23.4614 73.2651 23.471 73.3429V74.0846C23.4421 74.3079 23.4179 74.5068 23.3986 74.6815C23.379 74.9337 23.3644 75.1664 23.3547 75.3797V75.6417C23.3547 76.0686 23.3935 76.4081 23.471 76.6603V77.5916L23.5004 77.6061L23.471 77.6206V78.3776C23.4421 78.4455 23.4276 78.5134 23.4276 78.5813V78.6392L23.4421 78.7704L23.471 78.9012V80.9384C23.4324 81.0356 23.4131 81.1617 23.4131 81.3167V81.4186L23.4421 81.6806C23.4614 81.7873 23.471 81.865 23.471 81.9136V82.2625H23.4859V82.3643H23.471V84.4599H23.4859V84.5034L23.471 84.4889V85.5803C23.4517 85.6482 23.4421 85.7113 23.4421 85.7695C23.4421 85.8859 23.4808 85.9976 23.5584 86.1043C23.6166 86.2109 23.6991 86.2932 23.8059 86.3514C23.8252 86.3514 23.8447 86.3612 23.8642 86.3808C23.9418 86.4098 24.0145 86.4243 24.0824 86.4243H24.6064L24.577 86.3808L24.6643 86.3953H24.7517L24.7227 86.4243H25.3336C25.4404 86.4243 25.5423 86.3952 25.6395 86.337C25.7363 86.2981 25.8042 86.2302 25.8431 86.1333L25.8721 86.0894V86.075C25.8817 86.0363 25.8866 85.9879 25.8866 85.9297L25.9304 85.9442L25.9449 85.7985V84.6636C25.9642 84.615 25.9739 84.5568 25.9739 84.4889C25.9739 84.4113 25.9642 84.329 25.9449 84.2418V84.0671L25.9304 84.0816V83.9798L25.9449 83.9943V83.8341L25.9594 83.7033L25.9884 83.5431C25.9983 83.417 26.0081 83.3006 26.0178 83.1938V83.0775C26.0178 82.8542 25.9935 82.6894 25.9449 82.5829V82.3354L25.9015 82.3498C25.9111 82.3209 25.9353 82.2918 25.9739 82.2625C26.0032 82.2529 26.0323 82.248 26.0612 82.248H26.0906L26.0612 82.2625C26.0808 82.2625 26.1051 82.2771 26.1341 82.3064H26.2214C26.2796 82.3257 26.3379 82.3354 26.3961 82.3354C26.4543 82.3354 26.5125 82.3257 26.5708 82.3064H26.9491C27.0556 82.345 27.201 82.3643 27.3853 82.3643C27.4535 82.3643 27.5311 82.3595 27.6183 82.3498C27.8899 82.3402 28.1081 82.3062 28.2731 82.248C28.3992 82.2287 28.5205 82.1996 28.637 82.1607C28.7824 82.151 28.9764 82.0832 29.2189 81.957C29.4225 81.8795 29.6165 81.7825 29.8008 81.6661C30.1016 81.5303 30.3442 81.3314 30.5285 81.0692L30.7615 80.8221C30.9069 80.725 30.9991 80.5941 31.038 80.4293L31.067 80.342L31.0959 80.371L31.2271 80.1235V80.0945C31.2271 80.0655 31.2465 80.0412 31.2851 80.0216L31.4163 79.7307C31.5035 79.5756 31.5568 79.4107 31.5761 79.2361C31.615 79.11 31.6441 78.9887 31.6634 78.8722L31.7073 78.741L31.7362 78.6102V78.5958L31.7218 78.6247L31.7362 78.6102Z" fill="white"/>
<path d="M37.4257 71.0292V71.0582C37.4064 71.0871 37.3967 71.1163 37.3967 71.1455C37.3967 71.1648 37.4016 71.1891 37.4112 71.2184C37.353 71.6353 37.1444 71.9554 36.7854 72.1786L36.8003 72.1496L36.7419 72.1786H36.7564C36.5431 72.3047 36.3152 72.3678 36.0727 72.3678H35.9125C35.4953 72.3678 35.1509 72.13 34.8794 71.6546C34.734 71.4121 34.6613 71.189 34.6613 70.9853C34.6613 70.772 34.7388 70.5829 34.8939 70.4179C35.0393 70.1367 35.2527 69.9331 35.5342 69.8069L35.5197 69.8359L35.6215 69.792V69.7776L35.7962 69.7196C35.8834 69.6807 35.9804 69.6613 36.0871 69.6613C36.2036 69.6613 36.3249 69.6855 36.451 69.7341C36.6643 69.802 36.8534 69.9135 37.0184 70.0685C37.1349 70.156 37.227 70.2628 37.2949 70.3889C37.3628 70.5053 37.3967 70.6168 37.3967 70.7233V70.7962C37.416 70.8737 37.4257 70.9514 37.4257 71.0292ZM37.3678 75.0453C37.3678 75.1035 37.3628 75.1569 37.3529 75.2055L37.3239 75.3218V75.6562C37.3335 75.7144 37.3384 75.7775 37.3384 75.8454C37.3384 75.9232 37.3287 76.0057 37.3094 76.0929L37.3239 76.0784V76.5151C37.3628 76.6508 37.3822 76.8545 37.3822 77.126C37.3822 77.3978 37.3628 77.6015 37.3239 77.7373V78.45L37.3094 78.5229L37.2949 78.5813L37.3239 78.5668V78.9157L37.3094 78.9012L37.2804 78.9306L37.2949 79.0175C37.3046 79.0564 37.3094 79.1001 37.3094 79.1487H37.3239V80.2691H37.3094L37.3239 80.5456C37.3239 80.6717 37.3191 80.7396 37.3094 80.7493L37.3384 81.1276V81.2733C37.3384 81.3605 37.3335 81.438 37.3239 81.5059V81.8407C37.3335 81.899 37.3384 81.9668 37.3384 82.0444C37.3384 82.1316 37.3335 82.2286 37.3239 82.3353V82.5973C37.3432 82.7817 37.3529 82.9514 37.3529 83.1064C37.3529 83.2618 37.3432 83.4073 37.3239 83.5431C37.3239 84.0185 37.3191 84.2563 37.3094 84.2563L37.3239 84.2707V84.3287C37.3725 84.4647 37.3967 84.6733 37.3967 84.9545V85.2165C37.3871 85.6627 37.3337 85.9488 37.2366 86.0749C37.1783 86.1721 37.1056 86.2498 37.0184 86.308C36.9409 86.3759 36.8002 86.4098 36.5962 86.4098C36.5284 86.4098 36.4508 86.405 36.3636 86.3953H36.1306L35.927 86.4098L35.7378 86.3953H35.4613C35.3741 86.3953 35.2918 86.3807 35.2142 86.3514C35.0492 86.3128 34.9473 86.211 34.9084 86.046C34.8697 85.9588 34.8504 85.8666 34.8504 85.7695V85.5514C34.8115 85.4446 34.792 85.3185 34.792 85.1731V85.0857L34.821 84.8382L34.8504 84.6052V83.5431L34.821 83.4123L34.8065 83.2521L34.7776 82.9028V82.7865C34.7776 82.5729 34.8018 82.3983 34.8504 82.2625V82.0733L34.8794 82.1027C34.8794 82.0445 34.8746 81.9863 34.8649 81.9281H34.8504V81.8407C34.8018 81.705 34.7776 81.4964 34.7776 81.2149C34.7776 80.9434 34.8018 80.7348 34.8504 80.5891V78.1301C34.8308 78.0622 34.821 77.9992 34.821 77.9409C34.821 77.8731 34.8308 77.81 34.8504 77.7518V76.806C34.8601 76.7768 34.8649 76.7525 34.8649 76.7332C34.8649 76.7039 34.8601 76.6845 34.8504 76.6748V76.6169L34.821 76.4712L34.8065 76.3549V76.2965C34.8065 76.219 34.8212 76.1463 34.8504 76.0784V75.758L34.8794 75.7435L34.8649 75.6562V75.5544H34.8504V75.2344C34.8405 75.1859 34.8355 75.1373 34.8355 75.0887C34.8355 75.0305 34.8405 74.9773 34.8504 74.929V74.376C34.8405 74.3274 34.8355 74.2789 34.8355 74.2303C34.8355 74.1235 34.8696 74.0169 34.9377 73.9104C35.0539 73.7065 35.2284 73.6045 35.4613 73.6045H35.636C35.6942 73.5948 35.7524 73.59 35.8107 73.59H36.0433L36.1745 73.6045H36.6691L36.6546 73.619H36.6981L36.6836 73.6045H36.6981C36.8727 73.6045 37.0183 73.6675 37.1347 73.7937C37.2608 73.9101 37.3239 74.0557 37.3239 74.2303C37.3239 74.6279 37.3191 74.8267 37.3094 74.8267L37.3529 74.9141C37.3628 74.953 37.3678 74.9967 37.3678 75.0453Z" fill="white"/>
<path d="M48.2956 82.8155L48.3245 82.9173C48.3342 82.9659 48.339 83.0193 48.339 83.0775C48.339 83.194 48.3149 83.3152 48.2666 83.4413C48.2666 83.645 48.1937 83.8632 48.048 84.0961C47.9705 84.2804 47.8783 84.4599 47.7716 84.6346L47.7571 84.6052L47.7136 84.6781H47.7281V84.6926C47.4566 85.1291 47.1074 85.4977 46.6805 85.7985C46.5252 85.9635 46.2826 86.1042 45.9529 86.2207L45.6909 86.337C45.4094 86.4923 45.1426 86.57 44.8904 86.57C44.8322 86.57 44.7789 86.565 44.7306 86.5551L44.3523 86.5845V86.57L44.3374 86.5845L43.9446 86.57C43.9543 86.5601 43.9591 86.5503 43.9591 86.5406H43.9012L43.8718 86.5551V86.57C43.736 86.5504 43.5954 86.5261 43.45 86.4972C43.1881 86.4972 42.9263 86.4147 42.6644 86.2496L42.3585 86.1044C41.9996 85.9783 41.7522 85.8084 41.6164 85.5949C41.1509 85.1972 40.7921 84.7171 40.5399 84.1545C40.4234 83.9702 40.3313 83.7858 40.2634 83.6015C40.2051 83.4365 40.176 83.2813 40.176 83.1359C40.176 83.0873 40.1809 83.0387 40.1905 82.9902C40.1712 82.8737 40.1566 82.738 40.1467 82.5829C40.1273 82.515 40.1177 82.4422 40.1177 82.3644C40.1177 82.2868 40.1273 82.2044 40.1467 82.1173V81.7969C40.1177 81.6322 40.1032 81.4721 40.1032 81.3168C40.1032 81.1518 40.1177 80.9917 40.1467 80.8366V80.5018C40.0984 80.2399 40.0742 79.9199 40.0742 79.5415V79.3379L40.1177 78.756C40.1273 78.4938 40.137 78.2997 40.1467 78.1736V77.2572L40.1322 77.097L40.1032 76.9513V76.8785C40.1032 76.7913 40.1177 76.7186 40.1467 76.6604V76.0201L40.176 75.9766L40.1467 75.9472V75.4091C40.1273 75.3313 40.1177 75.2537 40.1177 75.1761C40.1177 75.0793 40.1323 74.9919 40.1616 74.9141H40.1467V74.5213C40.1273 74.4631 40.1177 74.3952 40.1177 74.3177C40.1177 74.2402 40.1273 74.148 40.1467 74.0412V73.7937H40.1616C40.142 73.7162 40.1322 73.6434 40.1322 73.5756C40.1322 73.4884 40.1468 73.401 40.176 73.3136L40.2195 73.0516L40.2489 73.0665L40.2779 73.0371L40.2923 72.8918L40.2634 72.8479L40.2923 72.7461C40.302 72.6589 40.3311 72.5764 40.3797 72.4986C40.4282 72.3339 40.4913 72.1738 40.5688 72.0185C40.6077 71.8052 40.729 71.5676 40.9327 71.3057C41.117 71.0728 41.3158 70.8837 41.5291 70.7383C41.7427 70.544 41.9755 70.3742 42.2278 70.2288C42.3539 70.122 42.4944 70.0493 42.6495 70.0106L42.7224 69.9812V69.9961C42.7902 69.9862 42.8533 69.9668 42.9115 69.9378L42.8825 69.9233L43.2025 69.8215C43.4354 69.734 43.644 69.6903 43.8283 69.6903H43.9301C44.0466 69.6806 44.1582 69.6758 44.265 69.6758C44.4396 69.6758 44.6093 69.6854 44.7741 69.7048H44.8759C45.0895 69.7048 45.3368 69.7728 45.618 69.9088C45.7538 69.9474 45.8751 69.991 45.9818 70.0396C46.0983 70.0785 46.2001 70.1367 46.2873 70.2143C46.5395 70.35 46.7724 70.5101 46.986 70.6944L46.9715 70.7089L47.1312 70.8835V70.8401L47.3353 71.0437C47.4517 71.1116 47.5293 71.2086 47.5679 71.3347C47.7136 71.5287 47.8445 71.7373 47.9607 71.9605C48.0868 72.1349 48.1645 72.3289 48.1937 72.5425L48.2666 72.79C48.2956 72.8965 48.3149 72.9887 48.3245 73.0665C48.3342 73.1051 48.339 73.1439 48.339 73.1828C48.339 73.3378 48.2906 73.4688 48.1937 73.5756C48.0773 73.721 47.9124 73.7937 47.6991 73.7937H47.1168L47.1312 73.7792H47.1168C47.0199 73.7988 46.9327 73.8086 46.8552 73.8086C46.797 73.8086 46.7484 73.8036 46.7095 73.7937H46.3312L46.3601 73.7502L46.2438 73.7213L46.2294 73.7502C46.0936 73.7017 45.9868 73.6143 45.909 73.4882C45.8508 73.4107 45.7925 73.2942 45.7343 73.1389L45.6474 72.9497L45.5601 72.7751C45.3854 72.5521 45.1671 72.3873 44.9053 72.2805L44.9343 72.266L44.8324 72.2221L44.8469 72.2515C44.6626 72.1836 44.4734 72.1497 44.2795 72.1497H44.1483L44.0903 72.1058L43.974 72.1203C43.9544 72.1495 43.9446 72.169 43.9446 72.1786C43.7895 72.2076 43.6392 72.261 43.4935 72.3388L43.2025 72.6008C43.0764 72.7073 42.9794 72.7945 42.9115 72.8624V72.8773C42.7951 73.0517 42.7127 73.2457 42.6644 73.4593C42.6352 73.4882 42.6205 73.5222 42.6205 73.5611C42.6205 73.5804 42.6254 73.6047 42.635 73.6339L42.6205 73.8521V74.0122C42.7077 74.6427 42.7513 75.2538 42.7513 75.8454C42.7513 76.4373 42.7077 77.0097 42.6205 77.5627V77.7953L42.6061 77.8098V77.9265L42.6205 77.941V78.7849C42.6498 78.8917 42.6644 79.0226 42.6644 79.1777C42.6644 79.3331 42.6498 79.469 42.6205 79.5854V79.8325L42.5771 79.9054L42.5916 80.0511L42.6205 80.1963C42.6302 80.2449 42.635 80.2935 42.635 80.342C42.635 80.3903 42.6302 80.4387 42.6205 80.4873V80.9674C42.6302 81.016 42.635 81.0646 42.635 81.1131C42.635 81.152 42.6302 81.1956 42.6205 81.2439V82.5245C42.6691 82.7864 42.7516 83.0434 42.8681 83.2956C43.0038 83.5285 43.1832 83.7177 43.4061 83.8631L43.3482 83.8486L43.4935 83.9359L43.4645 83.8925C43.6002 83.8925 43.6924 83.9409 43.741 84.0378L44.3668 84.1106C44.4929 84.1009 44.619 84.0767 44.7451 84.0378C45.0555 83.8827 45.2981 83.7275 45.4727 83.5721L45.5452 83.4997H45.5601C45.6084 83.4511 45.6471 83.4074 45.6764 83.3685L45.6619 83.325L45.7492 83.1793L45.8072 83.0191C45.8557 82.8834 45.9043 82.7816 45.9529 82.7137C46.0014 82.5876 46.0936 82.5197 46.2294 82.51C46.2972 82.4808 46.3699 82.4662 46.4475 82.4662H46.724C46.8793 82.4372 47.0151 82.4179 47.1312 82.4082C47.2187 82.3986 47.3012 82.3937 47.3788 82.3937C47.4563 82.3937 47.529 82.3986 47.5969 82.4082C47.9559 82.4469 48.1888 82.5826 48.2956 82.8155Z" fill="white"/>
<path d="M58.045 84.5182L58.0595 84.678V84.94C58.0595 85.0079 58.0547 85.0661 58.045 85.1147V85.3328L58.0305 85.3473L58.045 85.3622V85.755C58.045 85.9197 57.9916 86.0603 57.8848 86.1767C57.7587 86.3224 57.5889 86.3953 57.3753 86.3953C57.3074 86.3953 57.2395 86.3905 57.1717 86.3808H56.6187L55.9204 86.3953L55.2218 86.4243H54.9018C54.4846 86.4243 54.1256 86.4098 53.8249 86.3808H53.5922C53.4369 86.3905 53.2913 86.3953 53.1556 86.3953C53.0198 86.3953 52.8937 86.3905 52.7773 86.3808H52.2098C52.1612 86.3905 52.1127 86.3953 52.0641 86.3953C52.0158 86.3953 51.9626 86.3905 51.9043 86.3808H51.6424C51.3223 86.3808 51.1088 86.1624 51.002 85.7256C50.9535 85.5512 50.9292 85.3815 50.9292 85.2165C50.9292 85.0322 50.9631 84.8575 51.031 84.6925C51.0506 84.6539 51.0604 84.6247 51.0604 84.6052C51.0604 84.5762 51.0506 84.552 51.031 84.5327V82.9467C51.002 82.7234 50.9827 82.51 50.9731 82.3063C50.9731 82.0445 50.9924 81.831 51.031 81.666V81.3606C51.0117 81.2538 51.002 81.1616 51.002 81.0841C51.002 80.9966 51.0117 80.9286 51.031 80.88V80.8656C51.0603 80.8073 51.0749 80.7395 51.0749 80.6619L51.031 80.6764V80.2546C51.031 80.1868 51.036 80.0994 51.0459 79.9926L51.031 79.9781V79.6288C50.9924 79.4834 50.9731 79.3185 50.9731 79.1342L51.002 78.8867L51.031 78.6541V78.4066L51.002 78.1884L50.9876 77.9554C50.9876 77.7807 51.002 77.6255 51.031 77.4898V75.3362H51.0459L51.0604 75.2489H51.031V74.1574C51.0117 74.0509 51.002 73.9588 51.002 73.881C51.002 73.7938 51.0117 73.7259 51.031 73.6773V73.2262C50.9728 73.0614 50.9437 72.8383 50.9437 72.5569V72.3388C50.9536 72.2223 50.9682 72.0623 50.9876 71.8586L51.0165 71.6256L51.031 71.422V70.84C51.0214 70.7526 51.0165 70.6749 51.0165 70.607C51.0165 70.4034 51.0505 70.2628 51.1184 70.1852C51.1766 70.0881 51.2543 70.0104 51.3514 69.9522V69.9667L51.4093 69.9232L51.4677 69.9087C51.5549 69.8698 51.6762 69.8504 51.8315 69.8504L52.2098 69.8794H52.7044L52.8501 69.8649L52.9954 69.8504L53.3158 69.8214H53.4321C53.626 69.8214 53.7861 69.8407 53.9122 69.8794H54.2325C54.2325 69.8989 54.2374 69.9136 54.247 69.9232H54.3633L54.3489 69.8794H54.5815C54.6011 69.8989 54.6205 69.9087 54.6398 69.9087C54.6591 69.9087 54.6786 69.8989 54.6982 69.8794H54.7272C54.8339 69.8407 54.9649 69.8214 55.12 69.8214H55.2073L55.4548 69.8504L55.6729 69.8794H56.3716L56.5607 69.8649C56.6286 69.8649 56.6917 69.8697 56.7499 69.8794H57.4047C57.5211 69.8794 57.6278 69.9085 57.7246 69.9667C57.8314 70.0249 57.9091 70.1026 57.9577 70.1997C58.0352 70.2966 58.074 70.413 58.074 70.5491C58.074 70.607 58.0643 70.67 58.045 70.7382V71.3201C58.0353 71.3105 58.0255 71.3057 58.0156 71.3057C58.006 71.3057 57.9963 71.3153 57.9866 71.3346V71.3636L58.045 71.4075V71.7419C58.045 71.7905 58.0352 71.8439 58.0156 71.9021C57.9866 72.135 57.8752 72.2659 57.6812 72.2949C57.5937 72.3338 57.5064 72.3532 57.4192 72.3532H57.2011C57.1428 72.3726 57.0748 72.3822 56.997 72.3822C56.9195 72.3822 56.8323 72.3726 56.7354 72.3532H56.1386L56.1096 72.3243H55.906L55.9204 72.3532H53.5633L53.5049 72.4116V72.5569L53.4321 72.5279L53.4466 72.6152V72.6732L53.461 72.7316H53.5049V73.0515L53.4759 73.037V73.1099L53.5049 73.0809L53.4904 73.299C53.5194 73.4348 53.5339 73.5464 53.5339 73.6339C53.5339 73.7017 53.5242 73.76 53.5049 73.8085V74.2158L53.4904 74.1719C53.5291 74.3176 53.5484 74.4778 53.5484 74.6525C53.5484 74.7979 53.5339 74.9481 53.5049 75.1032V75.6562H54.509L54.6398 75.6417L54.7855 75.6272H54.858C54.9358 75.6272 55.0038 75.6369 55.062 75.6562H55.091V75.6711L55.2367 75.7001L55.2073 75.6562H55.5421C55.61 75.6369 55.6876 75.6272 55.7748 75.6272L56.0078 75.6562H56.1824C56.2696 75.6562 56.3568 75.6756 56.444 75.7145L56.4879 75.7435C56.7012 75.86 56.8078 76.0346 56.8078 76.2675V77.3151C56.8274 77.3733 56.8372 77.4267 56.8372 77.4753C56.8372 77.5721 56.8081 77.6691 56.7499 77.7663C56.6528 77.9699 56.4976 78.0863 56.2843 78.1156C56.2164 78.1349 56.129 78.1446 56.0223 78.1446L55.8915 78.1301H55.1344C55.0083 78.1494 54.8678 78.159 54.7127 78.159C54.5673 78.159 54.412 78.1494 54.247 78.1301H53.7669L53.7375 78.0862L53.7086 78.0427L53.5922 78.1301H53.5049V78.4649C53.5146 78.5036 53.5194 78.552 53.5194 78.6102L53.5049 78.7704V79.0903C53.5339 79.2843 53.5484 79.459 53.5484 79.6143C53.5484 79.7694 53.5339 79.9003 53.5049 80.0071V80.2836L53.4904 80.3126V80.4583L53.5049 82.0443C53.5339 82.1122 53.5484 82.1801 53.5484 82.248C53.5484 82.3255 53.5339 82.4032 53.5049 82.481V82.9467L53.5339 83.1064L53.5484 83.2956V83.3829C53.5484 83.4993 53.5339 83.5867 53.5049 83.6449V83.9069H53.8542C53.9414 83.8972 54.0433 83.8924 54.1597 83.8924H54.3344L54.567 83.9214L54.8 83.9359L54.7417 83.9069H55.4403C55.4886 83.8972 55.5468 83.8924 55.615 83.8924H55.8915L56.0367 83.9069H57.4192C57.7586 83.9069 57.9624 84.0718 58.0305 84.4015C58.0402 84.4404 58.045 84.4793 58.045 84.5182Z" fill="white"/>
<path d="M84.6445 85.1147L84.659 85.493V85.8858C84.659 86.1866 84.6445 86.4438 84.6155 86.6573L84.5866 87.0356C84.567 87.055 84.5572 87.0743 84.5572 87.0936C84.5572 87.1132 84.567 87.1326 84.5866 87.152L84.5721 87.2393L84.5282 87.6031L84.5137 87.6904C84.4748 87.9134 84.4311 88.1317 84.3825 88.3452C84.3825 88.4517 84.3584 88.5487 84.3101 88.6362C84.1451 89.2182 83.9122 89.776 83.6114 90.3096C83.6114 90.3193 83.5871 90.3629 83.5386 90.4404L83.3643 90.7024C83.1993 90.9546 83.1168 91.0855 83.1168 91.0952L83.015 91.2554L82.9421 91.3572C82.8743 91.4543 82.8016 91.5465 82.724 91.6337C82.3554 92.0799 81.9964 92.4339 81.647 92.6958V92.7107L81.4579 92.8704L81.4289 92.8414L81.3271 92.9143L81.3416 92.9578C80.905 93.2875 80.5412 93.5204 80.2501 93.6564C80.0755 93.7533 79.896 93.8405 79.7116 93.918C79.508 94.0734 79.2413 94.1753 78.9116 94.2239L78.8097 94.2673V94.2529H78.7804L78.7514 94.2818C78.5767 94.3304 78.3729 94.3838 78.14 94.442C78.0335 94.4906 77.9269 94.5149 77.8201 94.5149H77.7183C77.5436 94.5438 77.3593 94.5681 77.1653 94.5877L76.816 94.6456C76.7578 94.6553 76.7045 94.6601 76.6562 94.6601C76.5881 94.6601 76.5249 94.6505 76.4666 94.6312C76.263 94.6312 76.0594 94.6263 75.8557 94.6167C75.7489 94.607 75.6277 94.5974 75.4919 94.5877L75.1281 94.5293H75.0263C74.8613 94.5293 74.6916 94.5099 74.5172 94.471C74.2746 94.4227 74.0903 94.3548 73.9642 94.2673C73.4209 94.0927 72.9115 93.8744 72.4361 93.6125C72.2713 93.5836 72.1307 93.5012 72.0143 93.3654L71.8541 93.2487C71.6795 93.1808 71.5291 93.079 71.403 92.9433C70.6853 92.3806 70.079 91.7355 69.5843 91.0079C69.196 90.4356 68.9437 89.9748 68.8273 89.6254L68.7548 89.4657H68.7693L68.7254 89.4073L68.711 89.3489C68.5266 88.9513 68.4248 88.6507 68.4055 88.4471C68.2794 87.962 68.1969 87.472 68.158 86.9773L68.1874 87.0063L68.1725 86.9189L68.1435 86.9483V86.8171C68.1145 86.6813 68.1 86.5261 68.1 86.3515L68.1145 86.1189V85.1147L68.1 84.8527L68.0706 84.5473C68.0417 84.2951 68.0272 84.0865 68.0272 83.9214C68.0175 83.7953 68.0127 83.6741 68.0127 83.5576C68.0127 83.2182 68.0466 82.9515 68.1145 82.7576V82.2336C68.1049 82.185 68.1 82.1364 68.1 82.0879C68.1 82.0396 68.1049 81.9911 68.1145 81.9426V81.7679L68.158 81.8114V81.6077C68.1387 81.6077 68.1242 81.6175 68.1145 81.6371V80.9385L68.0851 80.662L68.0706 80.371C68.061 80.3031 68.0562 80.2401 68.0562 80.1818C68.0562 80.0364 68.0756 79.9103 68.1145 79.8035V76.7622L68.158 76.7332V76.7187L68.1145 76.6893V76.3839C68.1049 76.3063 68.1 76.219 68.1 76.1219C68.1 75.9475 68.1193 75.7535 68.158 75.5399L68.1435 75.511L68.1145 75.5399V75.2055C68.0949 75.1373 68.0851 75.0597 68.0851 74.9725L68.1145 74.7399V73.5172C68.1049 73.459 68.1 73.4009 68.1 73.3429C68.1 73.2847 68.1049 73.2265 68.1145 73.1683V72.9936H68.1435V72.9642L68.1145 72.9208V72.6877C68.1049 72.6199 68.1 72.5423 68.1 72.4551L68.1145 72.2221V71.3492H68.1435V71.189L68.1145 71.16V70.6509C68.0756 70.5248 68.0562 70.3889 68.0562 70.2432C68.0562 70.0882 68.0804 69.9185 68.129 69.7341L68.1435 69.4576C68.1338 69.3994 68.129 69.3364 68.129 69.2685C68.129 69.0356 68.1776 68.7543 68.2747 68.4246L68.2892 68.3078C68.3571 67.8327 68.488 67.3913 68.682 66.9838L68.8566 66.5765C68.9245 66.3436 69.036 66.1205 69.1911 65.9072C69.4629 65.4124 69.7831 64.9516 70.1517 64.5248V64.5393C70.1517 64.5489 70.1566 64.5537 70.1662 64.5537L70.2242 64.4519L70.1952 64.4664L70.2536 64.4085C70.3021 64.321 70.3652 64.253 70.4427 64.2044L70.7771 63.8555L70.7921 63.8845C70.8599 63.8359 70.923 63.7825 70.9812 63.7243L70.9518 63.6953L71.083 63.5935C71.2478 63.3703 71.4562 63.2054 71.7084 63.0989L72.1306 62.8369C72.2664 62.7011 72.441 62.5798 72.6546 62.4731C72.8776 62.3566 73.0715 62.2887 73.2366 62.2694L73.6728 62.0948C74.0028 61.9394 74.3764 61.8133 74.7937 61.7164C75.1041 61.6486 75.3854 61.6146 75.6376 61.6146C75.7637 61.6146 75.88 61.6243 75.9865 61.6436C76.1612 61.6339 76.331 61.6291 76.496 61.6291C76.5639 61.6195 76.6414 61.6146 76.7286 61.6146C76.8065 61.6146 76.8938 61.6195 76.9906 61.6291L77.2526 61.6726L77.5002 61.7164L77.5436 61.7309V61.7164C77.8734 61.7647 78.2129 61.8374 78.5622 61.9346C78.9016 61.9539 79.1635 62.0412 79.3478 62.1966L79.8135 62.3857C79.8913 62.4147 79.9641 62.4535 80.032 62.502C80.2649 62.6185 80.488 62.7397 80.7013 62.8659L80.6868 62.8803L80.7302 62.8948H80.7596L80.9194 62.9966C80.9972 63.0452 81.0701 63.0986 81.1379 63.1568C81.3223 63.2926 81.4968 63.4285 81.6615 63.5645C81.6712 63.6031 81.6955 63.6225 81.7344 63.6225L81.7633 63.6514H81.7199L81.7927 63.7098H81.8217V63.6953C81.9768 63.8311 82.1125 63.962 82.229 64.0881C82.2775 64.127 82.3213 64.1707 82.3602 64.2193L82.5349 64.3936L82.7095 64.5827C82.8453 64.7284 82.9423 64.8643 83.0005 64.9904C83.1848 65.2426 83.3351 65.4512 83.4512 65.6162C83.6066 65.8684 83.723 66.1012 83.8006 66.3145C83.8781 66.4795 83.946 66.6299 84.0042 66.7656C84.111 66.8821 84.1644 67.013 84.1644 67.1584V67.2023C84.2226 67.3767 84.276 67.5464 84.3246 67.7114C84.4118 67.9443 84.4602 68.1431 84.4698 68.3078L84.4848 68.4246V68.439L84.4698 68.4101V68.5698L84.4992 68.5264L84.5721 68.9775C84.6107 69.1618 84.63 69.3607 84.63 69.574C84.63 69.6515 84.6252 69.734 84.6155 69.8215V69.9523L84.63 70.1853L84.6445 70.4324C84.6349 70.6167 84.6057 70.7719 84.5572 70.898C84.5185 71.1698 84.4701 71.4367 84.4119 71.6985C84.3923 71.8536 84.368 71.9797 84.3391 72.0768C84.3101 72.2222 84.2713 72.3435 84.2227 72.4406C84.0966 72.8093 83.9463 73.1731 83.7716 73.5321L83.6988 73.6919L83.6259 73.8665C83.5776 73.9926 83.5292 74.1042 83.4806 74.2014C83.3449 74.4439 83.1945 74.6282 83.0295 74.7544L82.9856 74.8123L82.9276 74.8851L82.8258 75.0453C82.7287 75.1714 82.6414 75.2588 82.5638 75.3073C82.457 75.4042 82.3358 75.4526 82.2 75.4526C82.1611 75.4526 82.1223 75.4478 82.0837 75.4381C81.909 75.4091 81.7635 75.317 81.647 75.1616L80.8759 74.376C80.7402 74.24 80.6723 74.0993 80.6723 73.9539C80.6723 73.8471 80.7111 73.7355 80.7886 73.619C80.8661 73.4736 80.9776 73.2991 81.123 73.0954L81.2977 72.8334L81.4724 72.5859L81.647 72.237H81.6615L81.7054 72.1352L81.6909 72.1203C81.7685 71.936 81.8412 71.742 81.909 71.5383V71.4949C81.909 71.3492 81.9478 71.2133 82.0253 71.0872L82.0398 70.9564L82.0692 70.9709C82.0885 70.9127 82.103 70.8544 82.1127 70.7962L82.0692 70.8252C82.0982 70.6215 82.1175 70.4179 82.1272 70.2143C82.0885 70.0106 82.0546 69.7777 82.0253 69.5156L81.938 68.8318C81.8701 68.2885 81.7635 67.8375 81.6181 67.4788C81.4144 67.0519 81.1719 66.659 80.8904 66.3C80.8032 66.2321 80.7111 66.1351 80.6139 66.009L80.3519 65.718L80.1338 65.4995H80.1193C80.0029 65.4027 79.8718 65.3008 79.7261 65.194C79.6099 65.1455 79.479 65.0728 79.3333 64.9759L78.955 64.7284L78.6057 64.5682L77.9658 64.3646L77.3255 64.1899C77.0054 64.1414 76.6852 64.1171 76.3648 64.1171C75.7539 64.1171 75.1477 64.2142 74.5461 64.4085C74.4297 64.486 74.2938 64.5344 74.1384 64.5537C73.993 64.6216 73.8476 64.6943 73.7022 64.7719C73.6343 64.8108 73.5664 64.8449 73.4986 64.8741C73.2268 65.0292 72.9696 65.2037 72.727 65.3977C72.6592 65.5141 72.5622 65.6015 72.4361 65.6597C72.1935 65.8829 71.9704 66.1255 71.7668 66.3873L71.7523 66.4163C71.5387 66.6978 71.3592 66.9889 71.2138 67.2896L71.1993 67.2458L71.112 67.4204L71.141 67.4494L70.9812 67.8132C70.9713 67.8036 70.9615 67.7987 70.9518 67.7987L70.9373 67.8132C70.9084 67.8714 70.8939 67.9345 70.8939 68.0024H70.9084L70.8939 68.0752C70.8839 68.2013 70.8548 68.3469 70.8065 68.5119L70.7482 68.73L70.6753 68.9337C70.6171 69.2537 70.588 69.569 70.588 69.8794V70.0686C70.6172 70.1657 70.6319 70.2773 70.6319 70.4034V70.5052L70.6174 70.7234L70.588 70.9419V71.8877H70.559V72.0478L70.588 72.0185V72.5859C70.6172 72.6538 70.6319 72.7315 70.6319 72.8189C70.6319 72.8965 70.6172 72.9838 70.588 73.0809V73.4154C70.6559 73.6775 70.6948 74.0317 70.7047 74.4779C70.7047 74.953 70.6658 75.307 70.588 75.5399V76.8061C70.6076 76.8739 70.6174 76.9418 70.6174 77.0097C70.6174 77.0776 70.6076 77.1455 70.588 77.2133V78.8284C70.6076 78.9448 70.6174 79.0468 70.6174 79.1343C70.6174 79.2311 70.6076 79.3135 70.588 79.3814V79.5126L70.5735 79.4832V79.556L70.588 79.5271V79.7162C70.6076 79.7937 70.6174 79.8713 70.6174 79.9488C70.6174 80.0363 70.6076 80.1236 70.588 80.2108V81.3023L70.5735 81.3168L70.588 81.3457V81.7824C70.559 81.7921 70.5445 81.8115 70.5445 81.8408C70.5445 81.8697 70.559 81.9085 70.588 81.9571V84.0233C70.6269 84.1979 70.6464 84.4065 70.6464 84.6491V84.7944L70.6319 85.1876L70.6029 85.5804C70.5736 85.8811 70.559 86.148 70.559 86.3809C70.559 86.6913 70.5833 86.9435 70.6319 87.1375L70.6753 87.1954L70.6898 87.3121C70.748 87.4382 70.7771 87.574 70.7771 87.7194C70.845 88.0105 70.9422 88.2967 71.0685 88.5778L71.1555 88.7525L71.2577 88.9127C71.3256 89.0388 71.374 89.1601 71.403 89.2765L71.4758 89.3928V89.4073L71.5487 89.5091C71.6455 89.6449 71.7668 89.8049 71.9125 89.9892L72.1161 90.2078L72.3053 90.4404C72.4217 90.5568 72.5382 90.6636 72.6546 90.7608C72.9551 90.9352 73.2752 91.1631 73.6149 91.4445C73.7799 91.5317 73.9399 91.6093 74.095 91.6771C74.2503 91.716 74.4007 91.7743 74.5461 91.8518C74.7305 91.9197 74.905 91.9731 75.0697 92.012L75.0408 92.041L75.1864 92.0554L75.172 92.0265L75.2738 92.041C75.3417 92.041 75.4338 92.0556 75.5503 92.0848L75.6811 92.1138L75.8268 92.1283H75.8118L76.001 92.1428H76.2051L76.4232 92.1283C76.5104 92.1186 76.5929 92.1138 76.6707 92.1138C76.7386 92.1138 76.8016 92.1186 76.8598 92.1283C77.0442 92.1186 77.2235 92.0993 77.3979 92.0703V92.0993L77.5146 92.0703L77.5291 92.041L77.6599 92.012C77.8153 91.9149 78.0044 91.8227 78.2274 91.7355L78.8242 91.5174C79.2994 91.3234 79.6777 91.1196 79.9591 90.906C80.0367 90.8092 80.1531 90.6927 80.3085 90.5567L80.4831 90.3969L80.6723 90.2368C80.7984 90.0913 80.9099 89.9506 81.0067 89.8146H81.0212L80.9778 89.8874L80.9488 89.9458L80.9194 89.9892C81.0165 89.9021 81.0844 89.7954 81.123 89.6693L81.2542 89.4657C81.39 89.2424 81.5161 89.0095 81.6326 88.767C81.6229 88.7962 81.6181 88.835 81.6181 88.8833C81.6567 88.8251 81.6858 88.7572 81.7054 88.6797C81.6761 88.6893 81.6567 88.7039 81.647 88.7235L81.7782 88.3887L81.8072 88.4032V88.3887L81.7927 88.3597L81.8507 88.1995C81.8896 87.9862 81.9624 87.6904 82.0692 87.3121C82.1175 87.0017 82.1416 86.6913 82.1416 86.3809V86.2496L82.1127 86.017C82.1127 85.9296 82.1223 85.8567 82.1416 85.7985V85.6967L82.171 85.7112C82.1807 85.6822 82.1904 85.6482 82.2 85.6093L82.1416 85.5804V85.3039C82.1223 85.2167 82.1127 85.1149 82.1127 84.9984V84.8672L82.1272 84.6346L82.1416 84.4161V82.1901L82.1272 81.8987C82.1272 81.7922 82.132 81.7 82.1416 81.6222V80.5891L82.1272 80.3565L82.1127 80.138V80.0072C82.1127 79.8907 82.1223 79.7841 82.1416 79.6872V79.3669H81.7927L81.7344 79.3814H81.5887L81.4869 79.3669H81.1379L81.0796 79.3814H80.7741L80.6868 79.3669H79.6682L79.3772 79.3814L78.4749 79.5271C78.1159 79.5853 77.8151 79.6628 77.5726 79.7597L77.5581 79.7452L77.4563 79.7891L77.4273 79.818L77.1508 79.9488L76.8888 80.109C76.6559 80.2448 76.4716 80.3369 76.3359 80.3855L76.3648 80.4145L76.0883 80.6185C75.9429 80.7543 75.7877 80.8222 75.6227 80.8222C75.5744 80.8222 75.526 80.8173 75.4774 80.8077C75.4095 80.798 75.3465 80.7737 75.2883 80.7348L75.3028 80.7203L75.2444 80.662L75.2299 80.6909L75.172 80.6475L75.1281 80.6036H75.172C75.1331 80.565 75.0893 80.531 75.0408 80.5018V80.5167L75.0118 80.4873C74.9146 80.4291 74.8128 80.3273 74.7063 80.1818L74.2841 79.7597C74.2259 79.7014 74.1823 79.6287 74.1533 79.5415C74.1144 79.4447 74.095 79.3574 74.095 79.2795C74.095 79.0566 74.2405 78.8626 74.5316 78.6976L74.7643 78.5084C74.8711 78.3531 75.0166 78.2561 75.2009 78.2175C75.5017 78.0138 75.8121 77.8392 76.1322 77.6935C76.4426 77.5091 76.7675 77.3782 77.1069 77.3007C77.5338 77.1649 77.9607 77.0631 78.3876 76.9952L78.5912 76.9658H78.6496C79.1443 76.8883 79.6294 76.8495 80.1048 76.8495C80.1628 76.8495 80.2112 76.8544 80.2501 76.864L80.3085 76.8785L80.3519 76.8934H81.2104C81.2686 76.8835 81.3316 76.8785 81.3995 76.8785H82.0543L82.1416 76.864H82.2729C82.3214 76.864 82.365 76.8688 82.4037 76.8785L82.5055 76.8934H83.2331L83.3204 76.8785L83.3788 76.864C83.437 76.8544 83.5001 76.8495 83.568 76.8495H83.6988L83.8734 76.8785H84.0042C84.0724 76.8785 84.1404 76.8979 84.2083 76.9369C84.373 76.9951 84.4943 77.1067 84.5721 77.2717C84.63 77.3686 84.664 77.514 84.6739 77.708V77.7953C84.6739 77.941 84.6544 78.0574 84.6155 78.1446V78.5813C84.6349 78.6395 84.6445 78.7026 84.6445 78.7704V78.8433L84.63 78.9596L84.6155 79.0904V79.818C84.6445 79.8956 84.659 79.9732 84.659 80.0511V80.109L84.63 80.2402L84.6011 80.3855L84.6155 80.4145V80.9095C84.6155 80.9677 84.6107 81.0259 84.6011 81.0842L84.6155 81.0986V81.9136L84.63 82.1028L84.6155 82.2919V82.772C84.6834 82.9271 84.7174 83.1697 84.7174 83.4997V83.6305C84.7077 83.9991 84.6738 84.2951 84.6155 84.5183V84.7654L84.6011 84.7799L84.63 84.9256C84.6397 84.9838 84.6445 85.0468 84.6445 85.1147Z" fill="white"/>
<path d="M94.554 84.5182L94.5685 84.678V84.94C94.5685 85.0079 94.5637 85.0661 94.554 85.1147V85.3328L94.5395 85.3473L94.554 85.3622V85.755C94.554 85.9197 94.5006 86.0603 94.3938 86.1767C94.2677 86.3224 94.098 86.3953 93.8848 86.3953C93.8166 86.3953 93.7486 86.3905 93.6807 86.3808H93.1277L92.4295 86.3953L91.7308 86.4243H91.4109C90.9936 86.4243 90.6347 86.4098 90.3339 86.3808H90.1013C89.9459 86.3905 89.8004 86.3953 89.6646 86.3953C89.5288 86.3953 89.4027 86.3905 89.2863 86.3808H88.7188C88.6703 86.3905 88.6217 86.3953 88.5731 86.3953C88.5249 86.3953 88.4716 86.3905 88.4134 86.3808H88.1514C87.8313 86.3808 87.6179 86.1624 87.5111 85.7256C87.4625 85.5512 87.4382 85.3815 87.4382 85.2165C87.4382 85.0322 87.4722 84.8575 87.54 84.6925C87.5596 84.6539 87.5694 84.6247 87.5694 84.6052C87.5694 84.5762 87.5596 84.552 87.54 84.5327V82.9467C87.5111 82.7234 87.4918 82.51 87.4821 82.3063C87.4821 82.0445 87.5014 81.831 87.54 81.666V81.3606C87.5207 81.2538 87.5111 81.1616 87.5111 81.0841C87.5111 80.9966 87.5207 80.9286 87.54 80.88V80.8656C87.5693 80.8073 87.5839 80.7395 87.5839 80.6619L87.54 80.6764V80.2546C87.54 80.1868 87.545 80.0994 87.555 79.9926L87.54 79.9781V79.6288C87.5014 79.4834 87.4821 79.3185 87.4821 79.1342L87.5111 78.8867L87.54 78.6541V78.4066L87.5111 78.1884L87.4966 77.9554C87.4966 77.7807 87.5111 77.6255 87.54 77.4898V75.3362H87.555L87.5694 75.2489H87.54V74.1574C87.5207 74.0509 87.5111 73.9588 87.5111 73.881C87.5111 73.7938 87.5207 73.7259 87.54 73.6773V73.2262C87.4818 73.0614 87.4527 72.8383 87.4527 72.5569V72.3388C87.4626 72.2223 87.4773 72.0623 87.4966 71.8586L87.5256 71.6256L87.54 71.422V70.84C87.5304 70.7526 87.5256 70.6749 87.5256 70.607C87.5256 70.4034 87.5595 70.2628 87.6274 70.1852C87.6856 70.0881 87.7633 70.0104 87.8604 69.9522V69.9667L87.9184 69.9232L87.9767 69.9087C88.0639 69.8698 88.1852 69.8504 88.3405 69.8504L88.7188 69.8794H89.2135L89.3591 69.8649L89.5044 69.8504L89.8248 69.8214H89.9411C90.1351 69.8214 90.2951 69.8407 90.4212 69.8794H90.7416C90.7416 69.8989 90.7464 69.9136 90.7561 69.9232H90.8724L90.8579 69.8794H91.0909C91.1102 69.8989 91.1295 69.9087 91.1489 69.9087C91.1682 69.9087 91.1876 69.8989 91.2072 69.8794H91.2362C91.343 69.8407 91.4739 69.8214 91.629 69.8214H91.7163L91.9638 69.8504L92.182 69.8794H92.8806L93.0698 69.8649C93.1377 69.8649 93.2007 69.8697 93.2589 69.8794H93.9137C94.0302 69.8794 94.1368 69.9085 94.2337 69.9667C94.3405 70.0249 94.4181 70.1026 94.4667 70.1997C94.5442 70.2966 94.583 70.413 94.583 70.5491C94.583 70.607 94.5733 70.67 94.554 70.7382V71.3201C94.5444 71.3105 94.5346 71.3057 94.5246 71.3057C94.515 71.3057 94.5053 71.3153 94.4957 71.3346V71.3636L94.554 71.4075V71.7419C94.554 71.7905 94.5442 71.8439 94.5246 71.9021C94.4957 72.135 94.3842 72.2659 94.1902 72.2949C94.1027 72.3338 94.0154 72.3532 93.9282 72.3532H93.7101C93.6519 72.3726 93.5838 72.3822 93.506 72.3822C93.4285 72.3822 93.3413 72.3726 93.2444 72.3532H92.6476L92.6186 72.3243H92.415L92.4295 72.3532H90.0723L90.0139 72.4116V72.5569L89.9411 72.5279L89.9556 72.6152V72.6732L89.9701 72.7316H90.0139V73.0515L89.985 73.037V73.1099L90.0139 73.0809L89.9995 73.299C90.0284 73.4348 90.0429 73.5464 90.0429 73.6339C90.0429 73.7017 90.0333 73.76 90.0139 73.8085V74.2158L89.9995 74.1719C90.0381 74.3176 90.0574 74.4778 90.0574 74.6525C90.0574 74.7979 90.0429 74.9481 90.0139 75.1032V75.6562H91.0181L91.1489 75.6417L91.2945 75.6272H91.367C91.4448 75.6272 91.5128 75.6369 91.571 75.6562H91.6V75.6711L91.7457 75.7001L91.7163 75.6562H92.0512C92.119 75.6369 92.1966 75.6272 92.2838 75.6272L92.5168 75.6562H92.6915C92.7787 75.6562 92.866 75.6756 92.9535 75.7145L92.9969 75.7435C93.2102 75.86 93.3169 76.0346 93.3169 76.2675V77.3151C93.3365 77.3733 93.3463 77.4267 93.3463 77.4753C93.3463 77.5721 93.3172 77.6691 93.2589 77.7663C93.1618 77.9699 93.0066 78.0863 92.7933 78.1156C92.7254 78.1349 92.6381 78.1446 92.5313 78.1446L92.4005 78.1301H91.6435C91.5174 78.1494 91.3768 78.159 91.2217 78.159C91.0763 78.159 90.9211 78.1494 90.7561 78.1301H90.2759L90.2466 78.0862L90.2176 78.0427L90.1013 78.1301H90.0139V78.4649C90.0236 78.5036 90.0284 78.552 90.0284 78.6102L90.0139 78.7704V79.0903C90.0429 79.2843 90.0574 79.459 90.0574 79.6143C90.0574 79.7694 90.0429 79.9003 90.0139 80.0071V80.2836L89.9995 80.3126V80.4583L90.0139 82.0443C90.0429 82.1122 90.0574 82.1801 90.0574 82.248C90.0574 82.3255 90.0429 82.4032 90.0139 82.481V82.9467L90.0429 83.1064L90.0574 83.2956V83.3829C90.0574 83.4993 90.0429 83.5867 90.0139 83.6449V83.9069H90.3633C90.4505 83.8972 90.5523 83.8924 90.6687 83.8924H90.8434L91.076 83.9214L91.309 83.9359L91.2507 83.9069H91.9493C91.9979 83.8972 92.0561 83.8924 92.124 83.8924H92.4005L92.5458 83.9069H93.9282C94.2676 83.9069 94.4714 84.0718 94.5395 84.4015C94.5492 84.4404 94.554 84.4793 94.554 84.5182Z" fill="white"/>
<path d="M107.985 83.2232V83.6015C107.985 83.6791 107.99 83.7954 107.999 83.9504L108.014 84.3288C108.014 84.6295 107.994 84.8672 107.956 85.0419V85.4347H107.941L107.956 85.5075V85.7112C107.956 85.8859 107.893 86.0314 107.767 86.1479C107.65 86.274 107.505 86.337 107.33 86.337H106.093C106.006 86.337 105.923 86.3175 105.846 86.2786C105.681 86.24 105.579 86.143 105.54 85.9877C105.511 85.9198 105.492 85.8519 105.482 85.784L105.526 85.7695V85.7112L105.482 85.6822V85.4786C105.433 85.3329 105.409 85.1873 105.409 85.0419C105.409 84.9061 105.433 84.7704 105.482 84.6346V83.878C105.453 83.713 105.438 83.548 105.438 83.383C105.438 83.2183 105.453 83.0486 105.482 82.8739V82.4956L105.496 82.4811V82.3793L105.482 82.3644V80.9385L105.496 80.953L105.482 80.8077L105.453 80.6765C105.443 80.6475 105.438 80.6184 105.438 80.5891C105.438 80.5213 105.453 80.463 105.482 80.4145V80.2837H105.511L105.526 80.138L105.496 80.0945L105.482 80.1235V79.9054C105.472 79.8568 105.467 79.8083 105.467 79.7597C105.467 79.7015 105.472 79.6482 105.482 79.5999V78.9306L105.467 78.6393L105.453 78.3628V78.203C105.453 78.038 105.463 77.9021 105.482 77.7953V77.2134L105.395 77.4464V77.5043C105.395 77.6111 105.356 77.7033 105.278 77.7808L105.133 78.2175L105.089 78.2754L105.045 78.4211L105.06 78.4356L105.016 78.5668C104.987 78.8094 104.915 79.0859 104.798 79.3963C104.72 79.6096 104.604 79.8714 104.449 80.1819L104.362 80.4439C104.333 80.5603 104.294 80.6718 104.245 80.7783L103.998 81.4915L103.969 81.5204V81.5498L103.983 81.5643L103.954 81.6222C103.954 81.7387 103.915 81.8358 103.838 81.9136C103.711 82.1076 103.537 82.2046 103.314 82.2046H102.965L102.994 82.1752L102.892 82.1607L102.921 82.2046H102.645L102.528 82.1901V82.2046H101.859C101.568 82.2046 101.374 82.0687 101.277 81.7969L100.942 80.8367L100.986 80.8511L100.956 80.7932L100.913 80.7348L100.898 80.691L100.767 80.371C100.729 80.2449 100.695 80.1333 100.665 80.0362L100.549 79.6873L100.564 79.6434C100.564 79.6144 100.559 79.5805 100.549 79.5416L100.491 79.4981L100.462 79.4253L100.52 79.4542L100.491 79.3963L100.462 79.4108L99.7051 77.2134V77.5482C99.7537 77.7033 99.778 77.8973 99.778 78.1302C99.778 78.2174 99.7732 78.3047 99.7635 78.3922L99.7196 79.047L99.7051 79.2361V79.5126H99.6906V79.5999L99.7051 79.5854V79.9488C99.7341 80.1139 99.7536 80.2642 99.7635 80.4C99.7635 80.5843 99.744 80.7299 99.7051 80.8367V81.3168C99.7244 81.4525 99.7341 81.6078 99.7341 81.7824V81.9716L99.7196 82.3064L99.7051 82.6119V82.7866L99.7341 83.5432V83.7613C99.7341 83.9652 99.7244 84.1447 99.7051 84.2998V84.5908L99.7196 84.7364L99.7341 84.8966C99.7537 85.0324 99.7635 85.1535 99.7635 85.26V85.3623C99.7635 85.6045 99.7344 85.7839 99.6762 85.9003C99.6083 86.1139 99.4676 86.2498 99.254 86.308C99.0892 86.3856 98.8758 86.4243 98.6137 86.4243C98.4779 86.4243 98.3275 86.4147 98.1625 86.3954C97.6388 86.3371 97.343 86.1868 97.2751 85.9442C97.2459 85.8667 97.2312 85.789 97.2312 85.7112V85.0858L97.2606 85.1147V85.0274L97.2312 85.0419V84.6781L97.2606 84.6636L97.2461 84.6052H97.2312V83.2812C97.2312 83.1551 97.2216 82.995 97.2023 82.801L97.1733 82.2919C97.1636 82.1658 97.1588 82.0494 97.1588 81.9426C97.1588 81.6904 97.183 81.477 97.2312 81.3023V81.2439H97.2461C97.2558 81.1957 97.2655 81.1424 97.2751 81.0842L97.2312 81.0693V80.7348C97.1926 80.4148 97.1733 80.114 97.1733 79.8325C97.1733 79.5514 97.1926 79.2943 97.2312 79.0614V78.785C97.2023 78.6296 97.1878 78.4696 97.1878 78.3048C97.1878 78.1398 97.2023 77.97 97.2312 77.7953V77.5188C97.2119 77.4024 97.2023 77.3006 97.2023 77.2134C97.2023 77.1262 97.2119 77.0486 97.2312 76.9808V76.6169L97.2461 76.6024L97.2312 76.3549V74.9435C97.2119 74.8561 97.2023 74.7687 97.2023 74.6815C97.2023 74.604 97.2119 74.5263 97.2312 74.4485V74.0847C97.2023 73.9685 97.1878 73.8376 97.1878 73.6919C97.1878 73.5754 97.2023 73.4397 97.2312 73.2846V72.7751C97.2119 72.6976 97.2023 72.6248 97.2023 72.557C97.2023 72.4891 97.2119 72.4212 97.2312 72.3533V71.9312C97.2216 71.8729 97.2168 71.805 97.2168 71.7275C97.2168 71.65 97.2216 71.5578 97.2312 71.451V70.4469C97.2312 70.3597 97.2507 70.2773 97.2896 70.1998C97.2993 70.0058 97.4011 69.9039 97.5951 69.8939C97.6729 69.8553 97.7554 69.836 97.8426 69.836H98.9485L98.9775 69.8794H99.0069L99.0648 69.836H99.196C99.2347 69.8263 99.2783 69.8215 99.3268 69.8215C99.424 69.8215 99.5258 69.8506 99.6323 69.9088C99.778 69.996 99.875 70.1075 99.9233 70.2433L99.9816 70.4469C100.03 70.5051 100.064 70.5828 100.083 70.6799L100.112 70.7962L100.156 70.9274L100.214 71.1745H100.229L100.447 71.7859L100.433 71.7714C100.442 71.8197 100.462 71.8681 100.491 71.9167L100.506 71.9461C100.593 72.1011 100.646 72.2612 100.665 72.4262L100.942 73.2118C100.981 73.2992 101.01 73.3914 101.029 73.4882L101.189 73.9539C101.248 74.0607 101.286 74.1675 101.306 74.2742L101.466 74.7399C101.534 74.8464 101.592 74.9822 101.641 75.1472C101.679 75.254 101.713 75.3945 101.742 75.5689H101.757L101.859 75.8893C101.907 75.9861 101.946 76.088 101.975 76.1948L102.048 76.4423L102.033 76.4857C102.043 76.5246 102.057 76.5586 102.077 76.5875H102.106L102.135 76.6749C102.203 76.772 102.261 76.9079 102.31 77.0826L102.426 77.5043L102.528 77.8098C102.509 77.8294 102.499 77.8488 102.499 77.8682C102.499 77.8974 102.533 77.9362 102.601 77.9845L102.659 77.8098L102.674 77.8247V77.7519C102.674 77.6257 102.712 77.4463 102.79 77.2134C102.877 76.9515 102.97 76.7527 103.066 76.6169L103.27 76.0201L103.299 76.0495L103.328 76.0201C103.338 75.9815 103.348 75.9475 103.357 75.9183L103.387 75.8309L103.343 75.802L103.489 75.4092C103.508 75.3024 103.542 75.2004 103.59 75.1033L103.707 74.7689C103.755 74.4488 103.857 74.1528 104.012 73.881L104.784 71.6257C104.784 71.5385 104.808 71.4463 104.856 71.3492L104.973 71.1017L105.264 70.2433C105.361 69.9717 105.555 69.836 105.846 69.836H106.006C106.054 69.8263 106.112 69.8215 106.181 69.8215H106.384L106.559 69.836H107.17C107.228 69.8167 107.281 69.807 107.33 69.807C107.408 69.807 107.485 69.8312 107.563 69.8794C107.718 69.9377 107.83 70.0493 107.897 70.2143C108.004 70.3404 108.058 70.5587 108.058 70.8691C108.058 70.9466 108.053 71.0242 108.043 71.1017L108.014 71.3637L107.985 71.6257C107.966 71.8293 107.956 71.9701 107.956 72.0479V72.5135L107.97 72.7316V72.9063C107.97 73.0131 107.966 73.1053 107.956 73.1828V73.2846L107.97 73.4154C107.961 73.5415 107.941 73.6144 107.912 73.6339V73.7358H107.956V73.881L107.926 73.8955L107.956 73.9249V75.773C107.985 75.9087 107.999 76.0493 107.999 76.1948C107.999 76.3598 107.985 76.4907 107.956 76.5875V77.126C107.985 77.4171 107.999 77.6936 107.999 77.9555V78.1302C107.999 78.3727 107.985 78.5861 107.956 78.7705V80.0362C107.966 80.0944 107.97 80.1574 107.97 80.2253C107.97 80.2935 107.966 80.3615 107.956 80.4294V80.8077L107.97 81.0113V81.0842C107.97 81.1325 107.966 81.1809 107.956 81.2295V82.0734C107.975 82.287 107.99 82.5392 107.999 82.83L107.985 83.2232Z" fill="white"/>
<path d="M119 82.0734V82.3065C119 82.4422 118.995 82.578 118.985 82.7137C118.995 82.772 119 82.8302 119 82.8884C119 83.0048 118.971 83.1213 118.913 83.2377L118.855 83.4414V83.4848C118.855 83.6791 118.792 83.8489 118.666 83.9943C118.578 84.2076 118.471 84.4113 118.345 84.6053C118.238 84.9157 117.976 85.2261 117.56 85.5365C117.395 85.6822 117.23 85.8085 117.065 85.9153L117.036 85.8859C116.997 85.9055 116.963 85.9249 116.934 85.9442L116.963 85.9877L116.774 86.0895C116.657 86.206 116.483 86.3031 116.25 86.3809C116.046 86.4488 115.847 86.4827 115.653 86.4827C115.517 86.5117 115.382 86.531 115.246 86.5407C115.12 86.5892 114.984 86.6135 114.839 86.6135C114.683 86.6135 114.518 86.5844 114.344 86.5262L114.213 86.4972L114.227 86.4827L114.14 86.4678V86.4827C113.839 86.4342 113.553 86.3517 113.281 86.2352L113.252 86.1768L113.223 86.2062C113.078 86.148 112.937 86.0752 112.801 85.9877C112.636 85.9684 112.51 85.886 112.423 85.7406L112.365 85.6967L112.35 85.6533L112.306 85.6094C112.297 85.5997 112.287 85.5949 112.277 85.5949C112.268 85.5949 112.258 85.5997 112.248 85.6094C111.918 85.3379 111.647 85.0517 111.433 84.751C111.172 84.3823 111.011 84.0233 110.953 83.674L110.88 83.4269C110.851 83.3201 110.832 83.2279 110.822 83.1504V83.0631C110.822 82.8981 110.871 82.7573 110.968 82.6409C111.016 82.5148 111.118 82.4517 111.273 82.4517C111.322 82.4421 111.375 82.4372 111.433 82.4372H111.506L111.492 82.4517V82.4662C111.54 82.4662 111.588 82.4614 111.637 82.4517L111.608 82.4372H112.03C112.185 82.4179 112.321 82.4034 112.438 82.3938C112.593 82.3938 112.719 82.4131 112.816 82.4517C113 82.481 113.136 82.5731 113.223 82.7282C113.34 82.864 113.407 83.024 113.427 83.2083L113.442 83.2232C113.577 83.4754 113.767 83.6791 114.009 83.8342C114.203 83.9216 114.441 83.9993 114.722 84.0672C114.78 84.0768 114.833 84.0817 114.882 84.0817C115.464 84.0817 115.968 83.7373 116.395 83.0486C116.483 82.835 116.526 82.5925 116.526 82.3209C116.526 82.2142 116.522 82.1025 116.512 81.9861L116.439 81.6661L116.366 81.3313C116.318 81.2052 116.259 81.0791 116.192 80.953C116.085 80.8465 116.002 80.7204 115.944 80.5747C115.857 80.4582 115.721 80.3225 115.537 80.1674L115.1 79.7891L114.751 79.5271L114.795 79.5416V79.5271C114.155 79.207 113.655 78.8675 113.296 78.5085C113.053 78.3242 112.83 78.1398 112.627 77.9555C112.51 77.8876 112.413 77.8003 112.336 77.6935L111.986 77.3007C111.54 76.8156 111.249 76.3257 111.113 75.831L110.997 75.4527L110.88 75.0888C110.813 74.8463 110.779 74.628 110.779 74.434V74.3032C110.769 74.1479 110.764 73.9927 110.764 73.8376C110.754 73.7405 110.75 73.6483 110.75 73.5611C110.75 73.3671 110.779 73.2071 110.837 73.081C110.876 72.916 110.919 72.7461 110.968 72.5715C110.987 72.4939 111.011 72.4212 111.041 72.3534C111.215 71.9072 111.448 71.5046 111.739 71.1456C111.758 71.1552 111.773 71.1601 111.783 71.1601C111.792 71.1601 111.802 71.1552 111.812 71.1456L111.87 71.0727L111.826 71.0583L112.015 70.8401C112.141 70.6461 112.34 70.452 112.612 70.2578C112.893 70.0638 113.146 69.9571 113.369 69.9378C113.485 69.8893 113.607 69.8505 113.733 69.8215C113.849 69.734 113.975 69.6903 114.111 69.6903C114.15 69.6903 114.188 69.6951 114.227 69.7048C114.382 69.6758 114.542 69.6565 114.707 69.6469L114.751 69.6903H114.824L114.839 69.6469H115.013L115.1 69.6613H115.304C115.692 69.6613 115.998 69.7292 116.221 69.865C116.347 69.9135 116.478 69.9669 116.614 70.0252C116.788 70.0641 116.938 70.1466 117.065 70.2727L117.196 70.3596C117.623 70.5925 118.02 71.0097 118.389 71.6112C118.554 71.8149 118.699 72.0671 118.825 72.3678C118.932 72.62 118.985 72.8335 118.985 73.0081C118.985 73.076 118.976 73.1391 118.956 73.1973C118.947 73.3137 118.903 73.4107 118.825 73.4883L118.723 73.5901C118.675 73.629 118.636 73.6678 118.607 73.7064C118.52 73.7453 118.428 73.7648 118.331 73.7648H118.083C117.947 73.8133 117.807 73.8376 117.661 73.8376C117.526 73.8376 117.385 73.8133 117.239 73.7648H117.05C116.846 73.7648 116.682 73.6774 116.555 73.5028C116.478 73.4445 116.405 73.3233 116.337 73.1389L116.264 72.9208C116.226 72.8433 116.187 72.7802 116.148 72.7317C116.07 72.6345 115.968 72.5424 115.842 72.4552L115.668 72.3534L115.493 72.237C115.299 72.1592 115.1 72.1203 114.897 72.1203C114.829 72.1203 114.756 72.1253 114.678 72.1352C114.184 72.2031 113.796 72.4505 113.514 72.8774C113.388 73.1296 113.296 73.4932 113.238 73.9684C113.247 74.1916 113.276 74.3954 113.325 74.5797C113.364 74.6865 113.398 74.798 113.427 74.9142L113.471 75.0454C113.5 75.1229 113.534 75.1956 113.572 75.2635C113.64 75.3799 113.718 75.5012 113.805 75.6273C113.834 75.6466 113.868 75.6854 113.907 75.7436L114.024 75.8893C114.12 76.0058 114.203 76.0785 114.271 76.1074L114.533 76.326L114.518 76.355C114.567 76.4035 114.625 76.4375 114.693 76.4568L114.707 76.4713C114.872 76.5102 114.998 76.6023 115.086 76.7477L115.537 77.0532L116.002 77.3736L116.119 77.4754L116.133 77.4609L116.439 77.679C116.565 77.7373 116.667 77.8149 116.745 77.9121C117.045 78.1543 117.307 78.3919 117.53 78.6248L117.618 78.7121C117.783 78.8965 117.952 79.1342 118.127 79.4253L118.345 79.7891L118.564 80.1674C118.806 80.7008 118.947 81.2925 118.985 81.9426H118.971L119 82.0734Z" fill="white"/>
<path d="M89.1374 36.2129L80.9228 21.986C80.849 21.8582 80.7429 21.7521 80.6152 21.6783C80.4874 21.6045 80.3424 21.5657 80.1949 21.5657H73.1319L76.6419 15.4869C76.7157 15.3591 76.7546 15.2142 76.7546 15.0667C76.7546 14.9191 76.7157 14.7742 76.6419 14.6464L68.4265 0.420269C68.3527 0.292494 68.2466 0.186388 68.1189 0.112615C67.9911 0.0388427 67.8462 3.74815e-06 67.6986 0H51.2728C51.1253 3.74815e-06 50.9803 0.0388427 50.8526 0.112615C50.7248 0.186388 50.6187 0.292494 50.5449 0.420269L42.3303 14.6464C42.2565 14.7742 42.2177 14.9191 42.2177 15.0667C42.2177 15.2142 42.2565 15.3591 42.3303 15.4869L45.8404 21.5657H38.8051C38.6576 21.5657 38.5126 21.6045 38.3848 21.6783C38.2571 21.7521 38.151 21.8582 38.0772 21.986L29.8626 36.2138C29.7888 36.3415 29.75 36.4865 29.75 36.634C29.75 36.7816 29.7888 36.9265 29.8626 37.0543L38.0772 51.2804C38.151 51.4082 38.2571 51.5143 38.3848 51.5881C38.5126 51.6618 38.6576 51.7007 38.8051 51.7007H55.2317C55.3793 51.7007 55.5242 51.6618 55.652 51.5881C55.7798 51.5143 55.8859 51.4082 55.9597 51.2804L59.5 45.147L63.0404 51.2796C63.1141 51.4073 63.2202 51.5135 63.348 51.5872C63.4758 51.661 63.6207 51.6998 63.7683 51.6998H80.1949C80.3424 51.6998 80.4874 51.661 80.6152 51.5872C80.7429 51.5135 80.849 51.4073 80.9228 51.2796L89.1374 37.0535C89.2112 36.9257 89.25 36.7807 89.25 36.6332C89.25 36.4856 89.2112 36.3407 89.1374 36.2129ZM86.9537 35.7927H72.467L65.2241 23.2468H79.7099L86.9537 35.7927ZM63.7683 21.5657C63.6207 21.5657 63.4758 21.6045 63.348 21.6783C63.2202 21.7521 63.1141 21.8582 63.0404 21.986L59.3067 28.4531H52.7286L59.9715 15.9072H74.4582L71.1902 21.5657H63.7683ZM74.4582 14.2261H59.9707L52.7278 1.68108H67.2136L74.4582 14.2261ZM51.2728 2.52162L58.5157 15.0667L51.2728 27.6125L44.029 15.0667L51.2728 2.52162ZM50.5449 29.713C50.6187 29.8408 50.7248 29.9469 50.8526 30.0207C50.9803 30.0945 51.1253 30.1333 51.2728 30.1333H59.1016L62.0578 35.7927H47.5038L40.2609 23.2468H46.8112L50.5449 29.713ZM31.5605 36.634L38.8043 24.0882L46.0472 36.634L38.8043 49.1791L31.5605 36.634ZM54.7459 50.0196H40.2601L47.503 37.4746H61.9888L54.7459 50.0196ZM60.47 43.4668L64.1726 37.0535C64.3154 36.8047 64.3222 36.4987 64.1894 36.2449L60.6549 29.4785L63.7674 24.0882L71.0103 36.634L63.7674 49.1791L60.47 43.4668ZM79.7091 50.0196H65.2241L72.467 37.4746H86.9537L79.7091 50.0196Z" fill="white"/>
</g>
<defs>
<clipPath id="clip0_65_17">
<rect width="119" height="94.6603" fill="white"/>
</clipPath>
</defs>
</svg>
