<svg width="496" height="47" viewBox="0 0 496 47" fill="none" xmlns="http://www.w3.org/2000/svg">
<path d="M17.7476 46.7892C24.9656 45.0909 30.7399 39.2316 30.7399 31.7589C30.7399 15.9644 6.79336 20.7197 6.79336 6.96319C6.79336 4.41568 8.06711 1.5285 10.8694 0.424581V0C4.75535 1.61342 0.339668 6.5386 0.339668 12.6526C0.339668 29.5511 22.3332 23.9466 22.3332 37.1087C22.3332 40.6752 20.9745 44.8362 17.7476 46.4496V46.7892ZM22.8427 11.9733C25.8148 11.9733 28.0226 9.68053 28.0226 6.79335C28.0226 3.90618 25.8148 1.5285 22.8427 1.5285C19.9555 1.5285 17.5778 3.90618 17.5778 6.79335C17.5778 9.68053 19.9555 11.9733 22.8427 11.9733ZM5.26485 42.4585C8.06711 42.4585 10.3599 40.1657 10.3599 37.2785C10.3599 34.3064 8.06711 32.0137 5.26485 32.0137C2.29276 32.0137 0 34.3064 0 37.2785C0 40.1657 2.29276 42.4585 5.26485 42.4585Z" fill="white"/>
<path d="M52.9033 45.7703H63.433V1.01904H52.9033V45.7703ZM68.9526 27.7679C68.9526 27.7679 83.3885 28.9567 83.3885 14.4359C83.3885 1.01904 67.3392 1.01904 67.3392 1.01904C67.3392 1.01904 74.5571 1.44363 74.5571 14.351C74.5571 27.0886 68.9526 27.7679 68.9526 27.7679Z" fill="white"/>
<path d="M104.872 45.7703H115.402V1.01904H104.872V45.7703Z" fill="white"/>
<path d="M155.058 46.7892C155.058 46.7892 149.709 44.2417 149.709 23.3522C149.709 2.46259 155.058 0 155.058 0C155.058 0 137.735 6.28385 137.735 23.6918C137.735 41.0998 155.058 46.7892 155.058 46.7892ZM165.928 11.1241C168.815 11.1241 171.108 8.83136 171.108 6.0291C171.108 3.14193 168.815 0.849167 165.928 0.849167C163.125 0.849167 160.748 3.14193 160.748 6.0291C160.748 8.83136 163.125 11.1241 165.928 11.1241Z" fill="white"/>
<path d="M193.441 45.7703H203.971V1.01904H193.441V45.7703ZM218.576 5.01014C221.888 8.49173 222.567 11.3789 222.567 11.3789V1.01904H212.123C212.123 1.01904 215.349 1.61346 218.576 5.01014ZM214.925 16.1343C214.925 16.1343 214.415 18.427 211.868 21.0594C209.745 23.3522 207.622 24.2014 207.028 24.2014C207.622 24.2014 209.745 25.0505 211.868 27.3433C214.415 29.9757 214.925 32.2685 214.925 32.2685V16.1343ZM219.68 41.0149C215.944 45.0909 212.123 45.7703 212.123 45.7703H224.435V33.5422C224.435 33.5422 223.501 37.0238 219.68 41.0149Z" fill="white"/>
<path d="M299.417 46.7892C299.417 46.7892 294.067 44.2417 294.067 23.3522C294.067 2.46259 299.417 0 299.417 0C299.417 0 282.094 6.28385 282.094 23.6918C282.094 41.0998 299.417 46.7892 299.417 46.7892ZM315.467 15.8795C318.354 15.8795 320.646 13.5867 320.646 10.7845C320.646 7.89728 318.354 5.60452 315.467 5.60452C312.664 5.60452 310.287 7.89728 310.287 10.7845C310.287 13.5867 312.664 15.8795 315.467 15.8795ZM308.249 46.7892C310.287 41.6093 312.07 40.1657 316.485 40.1657C318.014 40.1657 319.373 40.5054 320.646 41.1847H320.731C320.646 19.1912 320.731 30.2304 320.731 25.8997H310.541C310.541 39.7411 308.249 46.7892 308.249 46.7892Z" fill="white"/>
<path d="M344.933 45.7703H355.462V1.01904H344.933V45.7703ZM370.068 5.01014C373.38 8.49173 374.059 11.3789 374.059 11.3789V1.01904H363.614C363.614 1.01904 366.841 1.61346 370.068 5.01014ZM366.417 16.1343C366.417 16.1343 365.907 18.427 363.36 21.0594C361.237 23.3522 359.114 24.2014 358.519 24.2014C359.114 24.2014 361.237 25.0505 363.36 27.3433C365.907 29.9757 366.417 32.2685 366.417 32.2685V16.1343ZM371.172 41.0149C367.436 45.0909 363.614 45.7703 363.614 45.7703H375.927V33.5422C375.927 33.5422 374.993 37.0238 371.172 41.0149Z" fill="white"/>
<path d="M417.876 46.7893L421.443 29.721L410.064 1.01904H400.044V4.67047L417.876 46.7893ZM432.482 45.7703H442.927V1.01904H432.482V45.7703Z" fill="white"/>
<path d="M483.008 46.7892C490.226 45.0909 496 39.2316 496 31.7589C496 15.9644 472.053 20.7197 472.053 6.96319C472.053 4.41568 473.327 1.5285 476.13 0.424581V0C470.015 1.61342 465.6 6.5386 465.6 12.6526C465.6 29.5511 487.593 23.9466 487.593 37.1087C487.593 40.6752 486.235 44.8362 483.008 46.4496V46.7892ZM488.103 11.9733C491.075 11.9733 493.283 9.68053 493.283 6.79335C493.283 3.90618 491.075 1.5285 488.103 1.5285C485.216 1.5285 482.838 3.90618 482.838 6.79335C482.838 9.68053 485.216 11.9733 488.103 11.9733ZM470.525 42.4585C473.327 42.4585 475.62 40.1657 475.62 37.2785C475.62 34.3064 473.327 32.0137 470.525 32.0137C467.553 32.0137 465.26 34.3064 465.26 37.2785C465.26 40.1657 467.553 42.4585 470.525 42.4585Z" fill="white"/>
</svg>
