<svg width="135" height="62" viewBox="0 0 135 62" fill="none" xmlns="http://www.w3.org/2000/svg">
<path d="M30.1646 12.3138C30.4972 12.5071 31.0421 12.5071 31.3754 12.3138L37.463 8.78132C37.7964 8.58803 37.7956 8.27219 37.4623 8.07963L31.3761 4.56535C31.0428 4.37279 30.4972 4.37279 30.1639 4.56535L24.0762 8.08036C23.7429 8.27292 23.7422 8.58803 24.0755 8.78132L30.1646 12.3138ZM31.638 12.7683C31.3046 12.9615 31.0326 13.4349 31.0326 13.8201V20.8698C31.0326 21.2549 31.3054 21.4124 31.6387 21.2199L37.7431 17.6947C38.0772 17.5021 38.35 17.0294 38.35 16.6443V9.57345C38.35 9.18833 38.0772 9.03078 37.7438 9.22407L31.638 12.7683ZM14.7245 12.3138C15.0579 12.5071 15.6027 12.5071 15.9361 12.3138L22.023 8.78132C22.3563 8.58803 22.3563 8.27219 22.0222 8.07963L15.9368 4.56608C15.6035 4.37352 15.0579 4.37352 14.7238 4.56608L8.6369 8.08109C8.30283 8.27365 8.30283 8.58876 8.63617 8.78205L14.7245 12.3138ZM15.0673 13.8201C15.0673 13.4349 14.7945 12.9615 14.4619 12.7683L8.35535 9.22626C8.02274 9.03296 7.74994 9.18979 7.74994 9.57564V16.645C7.74994 17.0302 8.02274 17.5028 8.35607 17.6954L14.4612 21.2199C14.7945 21.4124 15.0673 21.2549 15.0673 20.8698V13.8201ZM6.97458 7.89217C7.30792 8.08547 7.85278 8.08547 8.18612 7.89217L14.273 4.35966C14.6064 4.16637 14.6056 3.85053 14.2723 3.65797L8.18685 0.144422C7.85351 -0.0481408 7.30792 -0.0481408 6.97385 0.144422L0.886228 3.6587C0.552889 3.85126 0.552889 4.1671 0.886228 4.36039L6.97458 7.89217ZM7.3174 9.3984C7.3174 9.01327 7.0446 8.54062 6.71199 8.34732L0.605407 4.80533C0.272798 4.61203 0 4.76886 0 5.15398V12.2234C0 12.6085 0.272797 13.0812 0.606136 13.2737L6.71053 16.7975C7.0446 16.9901 7.3174 16.8325 7.3174 16.4474V9.3984Z" fill="white"/>
<path d="M45.1334 4.361C45.4667 4.16771 45.4667 3.85187 45.1334 3.65931L39.0458 0.145033C38.7117 -0.0475304 38.1661 -0.0475304 37.8328 0.145033L31.7473 3.65858C31.4133 3.85114 31.4133 4.16698 31.7466 4.36027L37.8335 7.89278C38.1668 8.08608 38.7117 8.08608 39.0451 7.89278L45.1334 4.361ZM38.7022 9.39828V16.4473C38.7022 16.8324 38.975 16.9899 39.3084 16.7974L45.4135 13.2736C45.7468 13.081 46.0196 12.6084 46.0196 12.2233V5.15313C46.0196 4.76801 45.7468 4.61119 45.4142 4.80448L39.3076 8.34647C38.975 8.5405 38.7022 9.01315 38.7022 9.39828Z" fill="white"/>
<path d="M30.1646 48.5892C30.4972 48.7825 31.0421 48.7825 31.3754 48.5892L37.463 45.0567C37.7964 44.8634 37.7956 44.5476 37.4623 44.355L31.3761 40.8415C31.0428 40.6489 30.4972 40.6489 30.1639 40.8415L24.0762 44.3558C23.7429 44.549 23.7422 44.8642 24.0755 45.0574L30.1646 48.5892ZM31.638 49.0444C31.3046 49.2377 31.0326 49.7111 31.0326 50.0954V57.1452C31.0326 57.5303 31.3054 57.6878 31.6387 57.4945L37.7431 53.9701C38.0772 53.7775 38.35 53.3048 38.35 52.9197V45.8488C38.35 45.4645 38.0772 45.3069 37.7438 45.5002L31.638 49.0444ZM14.7245 48.5892C15.0579 48.7825 15.6027 48.7825 15.9361 48.5892L22.023 45.0567C22.3563 44.8634 22.3563 44.5476 22.0222 44.355L15.9368 40.8415C15.6035 40.6489 15.0579 40.6489 14.7238 40.8415L8.6369 44.3558C8.30283 44.549 8.30283 44.8642 8.63617 45.0574L14.7245 48.5892ZM15.0673 50.0962C15.0673 49.7111 14.7945 49.2377 14.4619 49.0451L8.35535 45.5031C8.02274 45.3091 7.74994 45.4666 7.74994 45.8518V52.9212C7.74994 53.3063 8.02274 53.7797 8.35607 53.9715L14.4612 57.496C14.7945 57.6886 15.0673 57.531 15.0673 57.1459V50.0962ZM6.97458 44.169C7.30792 44.3623 7.85278 44.3623 8.18612 44.1683L14.273 40.6358C14.6064 40.4425 14.6056 40.1274 14.2723 39.9341L8.18685 36.4205C7.85351 36.228 7.30792 36.228 6.97385 36.4205L0.886228 39.9356C0.552889 40.1281 0.552889 40.4432 0.886228 40.6365L6.97458 44.169ZM7.3174 45.6745C7.3174 45.2894 7.0446 44.816 6.71199 44.6234L0.605407 41.0814C0.272798 40.8882 0 41.045 0 41.4308V48.5002C0 48.8846 0.272797 49.358 0.606136 49.5499L6.71053 53.0743C7.0446 53.2669 7.3174 53.1094 7.3174 52.7242V45.6745Z" fill="white"/>
<path d="M45.1334 40.6365C45.4667 40.4432 45.4667 40.1281 45.1334 39.9356L39.0458 36.4205C38.7117 36.228 38.1661 36.228 37.8328 36.4205L31.7473 39.9341C31.4133 40.1274 31.4133 40.4425 31.7466 40.6358L37.8335 44.1683C38.1668 44.3623 38.7117 44.3623 39.0451 44.169L45.1334 40.6365ZM38.7022 45.6745V52.7235C38.7022 53.1086 38.975 53.2662 39.3084 53.0736L45.4135 49.5491C45.7468 49.3566 46.0196 48.8839 46.0196 48.4995V41.4301C46.0196 41.045 45.7468 40.8882 45.4142 41.0807L39.3076 44.6227C38.975 44.816 38.7022 45.2894 38.7022 45.6745Z" fill="white"/>
<path d="M22.718 54.5178C22.718 54.132 22.446 53.6593 22.1126 53.466L16.0068 49.924C15.6734 49.7307 15.4006 49.8876 15.4006 50.2734V57.3428C15.4006 57.728 15.6734 58.2006 16.0075 58.3924L22.1119 61.9177C22.4452 62.1102 22.718 61.9527 22.718 61.5675V54.5178ZM23.8486 53.466C23.5153 53.6601 23.2432 54.1327 23.2432 54.5178V61.5668C23.2432 61.9519 23.516 62.1095 23.8493 61.9169L29.9537 58.3917C30.2878 58.1992 30.5606 57.7272 30.5606 57.3421V50.2712C30.5606 49.8861 30.2878 49.7293 29.9545 49.9219L23.8486 53.466ZM22.3752 53.0116C22.7078 53.2049 23.2527 53.2049 23.586 53.0116L29.6737 49.4784C30.007 49.2851 30.0063 48.97 29.6729 48.7767L23.5875 45.2639C23.2534 45.0706 22.7078 45.0706 22.3745 45.2639L16.2869 48.7781C15.9535 48.9707 15.9528 49.2858 16.2861 49.4798L22.3752 53.0116Z" fill="white"/>
<path d="M22.7757 36.4536C22.7757 36.0684 22.5036 35.595 22.1702 35.4025L16.0644 31.8605C15.7311 31.6665 15.459 31.824 15.459 32.2091V39.2785C15.459 39.6637 15.7311 40.1371 16.0651 40.3289L22.1695 43.8534C22.5029 44.0459 22.7757 43.8884 22.7757 43.504V36.4536ZM23.9062 35.4018C23.5729 35.5951 23.3008 36.0684 23.3008 36.4528V43.5025C23.3008 43.8869 23.5736 44.0445 23.907 43.8519L30.0114 40.3274C30.3454 40.1349 30.6182 39.6622 30.6182 39.2771V32.2062C30.6182 31.8218 30.3454 31.6643 30.0121 31.8576L23.9062 35.4018Z" fill="white"/>
<path d="M22.7757 27.4022C22.7757 27.0171 22.5036 26.5437 22.1702 26.3504L16.0644 22.8084C15.7311 22.6151 15.459 22.7719 15.459 23.1578V30.2272C15.459 30.6123 15.7311 31.085 16.0651 31.2775L22.1695 34.802C22.5029 34.9953 22.7757 34.837 22.7757 34.4526V27.4022ZM23.9062 26.3504C23.5729 26.5437 23.3008 27.0171 23.3008 27.4022V34.4519C23.3008 34.8363 23.5736 34.9946 23.907 34.8013L30.0121 31.2768C30.3462 31.0842 30.619 30.6116 30.619 30.2264V23.1556C30.619 22.7705 30.3462 22.6136 30.0128 22.8069L23.9062 26.3504Z" fill="white"/>
<path d="M22.4328 16.828C22.7654 17.0213 23.3103 17.0213 23.6437 16.828L29.7313 13.2955C30.0646 13.1022 30.0639 12.7863 29.7305 12.5938L23.6451 9.08021C23.311 8.88765 22.7654 8.88765 22.4321 9.08021L16.3445 12.5952C16.0111 12.7878 16.0104 13.1036 16.3438 13.2969L22.4328 16.828ZM22.7757 18.3342C22.7757 17.9491 22.5036 17.4757 22.1702 17.2831L16.0644 13.7411C15.7311 13.5478 15.459 13.7046 15.459 14.0898V21.1592C15.459 21.5443 15.7311 22.017 16.0651 22.2095L22.1695 25.734C22.5029 25.9266 22.7757 25.769 22.7757 25.3839V18.3342ZM23.9062 17.2831C23.5729 17.4764 23.3008 17.9498 23.3008 18.3342V25.3839C23.3008 25.769 23.5736 25.9266 23.907 25.734L30.0114 22.2095C30.3454 22.017 30.6182 21.5443 30.6182 21.1592V14.0883C30.6182 13.7032 30.3454 13.5464 30.0121 13.7397L23.9062 17.2831Z" fill="white"/>
<path d="M51.0392 19.7696C51.0392 21.8072 51.6139 23.3877 52.7633 24.511C53.9127 25.6343 55.5063 26.1959 57.5439 26.1959H61.815C63.8527 26.1959 65.4462 25.6343 66.5956 24.511C67.745 23.3877 68.3197 21.8072 68.3197 19.7696V18.4373C68.3197 16.8699 68.0128 15.5833 67.3989 14.5776C66.785 13.5718 66.0209 12.873 65.1066 12.4812C63.3824 11.7759 61.4101 11.3318 59.1897 11.1489C57.0475 10.966 55.9765 10.2607 55.9765 9.03292V8.2884C55.9765 7.11285 56.1659 6.32262 56.5447 5.91771C56.9235 5.5128 57.6484 5.31035 58.7194 5.31035H60.2476C61.2926 5.31035 62.011 5.49321 62.4028 5.85893C62.7947 6.22466 62.9906 6.91693 62.9906 7.93574V8.17085C62.9906 8.71944 63.2649 8.99373 63.8135 8.99373H67.1442C67.6928 8.99373 67.9671 8.71944 67.9671 8.17085V7.42633C67.9671 5.38872 67.3924 3.80826 66.2429 2.68495C65.0935 1.56165 63.4869 1 61.4232 1H57.5047C55.4671 1 53.8736 1.56165 52.7241 2.68495C51.5747 3.80826 51 5.38872 51 7.42633V8.79781C51 10.4175 51.3069 11.7432 51.9208 12.7751C52.5347 13.8069 53.2989 14.4992 54.2132 14.8519C55.1275 15.2045 56.1136 15.4919 57.1716 15.714C58.2296 15.936 59.2158 16.0862 60.1301 16.1646C61.0444 16.2429 61.8085 16.4846 62.4224 16.8895C63.0363 17.2944 63.3433 17.8757 63.3433 18.6332V19.1034C63.3433 20.1745 63.1408 20.906 62.7359 21.2978C62.331 21.6897 61.6191 21.8856 60.6003 21.8856H58.7586C57.7137 21.8856 56.9953 21.7027 56.6034 21.337C56.2116 20.9713 56.0157 20.2921 56.0157 19.2994V18.9859C56.0157 18.4373 55.7414 18.163 55.1928 18.163H51.8621C51.3135 18.163 51.0392 18.4373 51.0392 18.9859V19.7696Z" fill="white"/>
<path d="M75.7415 26.1959C76.2901 26.1959 76.5644 25.9216 76.5644 25.373V17.9671C76.5644 17.6797 76.7211 17.5361 77.0346 17.5361H81.9719C84.0095 17.5361 85.59 16.9809 86.7133 15.8707C87.8366 14.7605 88.3982 13.1865 88.3982 11.1489V7.38715C88.3982 5.34953 87.8366 3.7756 86.7133 2.66536C85.59 1.55512 84.0095 1 81.9719 1H72.4108C71.8622 1 71.5879 1.2743 71.5879 1.82288V25.373C71.5879 25.9216 71.8622 26.1959 72.4108 26.1959H75.7415ZM76.9954 13.1865C76.7081 13.1865 76.5644 13.0428 76.5644 12.7555V5.74138C76.5644 5.45402 76.7081 5.31035 76.9954 5.31035H81.149C81.985 5.31035 82.5727 5.48668 82.9123 5.83934C83.2519 6.19201 83.4217 6.78631 83.4217 7.62226V10.9138C83.4217 11.7236 83.2519 12.3049 82.9123 12.6575C82.5727 13.0102 81.985 13.1865 81.149 13.1865H76.9954Z" fill="white"/>
<path d="M96.3294 1.82288C96.3294 1.2743 96.0551 1 95.5065 1H92.1758C91.6272 1 91.3529 1.2743 91.3529 1.82288V25.373C91.3529 25.9216 91.6272 26.1959 92.1758 26.1959H95.5065C96.0551 26.1959 96.3294 25.9216 96.3294 25.373V1.82288Z" fill="white"/>
<path d="M110.765 26.1959C112.802 26.1959 114.389 25.6408 115.526 24.5306C116.662 23.4203 117.23 21.8464 117.23 19.8088V17.9671C117.23 17.3924 116.943 17.105 116.368 17.105H113.077C112.528 17.105 112.254 17.3924 112.254 17.9671V19.5737C112.254 20.4096 112.077 21.0039 111.725 21.3566C111.372 21.7092 110.778 21.8856 109.942 21.8856H107.277C106.467 21.8856 105.886 21.7092 105.533 21.3566C105.181 21.0039 105.004 20.4096 105.004 19.5737V7.62226C105.004 6.78631 105.181 6.19201 105.533 5.83934C105.886 5.48668 106.467 5.31035 107.277 5.31035H109.942C110.778 5.31035 111.372 5.48668 111.725 5.83934C112.077 6.19201 112.254 6.78631 112.254 7.62226V9.22884C112.254 9.80355 112.528 10.0909 113.077 10.0909H116.368C116.943 10.0909 117.23 9.80355 117.23 9.22884V7.38715C117.23 5.34953 116.662 3.7756 115.526 2.66536C114.389 1.55512 112.802 1 110.765 1H106.493C104.43 1 102.836 1.54859 101.713 2.64577C100.59 3.74295 100.028 5.32341 100.028 7.38715V19.8088C100.028 21.8725 100.59 23.453 101.713 24.5502C102.836 25.6473 104.43 26.1959 106.493 26.1959H110.765Z" fill="white"/>
<path d="M133.939 26.1959C134.461 26.1959 134.722 25.9216 134.722 25.373V22.7085C134.722 22.1599 134.461 21.8856 133.939 21.8856H125.749C125.436 21.8856 125.279 21.7419 125.279 21.4545V16.0078C125.279 15.7205 125.436 15.5768 125.749 15.5768H132.45C132.998 15.5768 133.273 15.3025 133.273 14.7539V12.0893C133.273 11.5408 132.998 11.2665 132.45 11.2665H125.749C125.436 11.2665 125.279 11.1228 125.279 10.8354V5.74138C125.279 5.45402 125.436 5.31035 125.749 5.31035H133.939C134.461 5.31035 134.722 5.03605 134.722 4.48746V1.82288C134.722 1.2743 134.461 1 133.939 1H121.125C120.577 1 120.302 1.2743 120.302 1.82288V25.373C120.302 25.9216 120.577 26.1959 121.125 26.1959H133.939Z" fill="white"/>
<path d="M62.4695 56.3918C64.5071 56.3918 66.0875 55.8367 67.2108 54.7265C68.3341 53.6162 68.8958 52.0423 68.8958 50.0047V43.4608C68.8958 42.86 68.5954 42.5596 67.9945 42.5596H61.1372C60.5886 42.5596 60.3143 42.8339 60.3143 43.3824V46.047C60.3143 46.5956 60.5886 46.8699 61.1372 46.8699H63.4883C63.7756 46.8699 63.9193 47.0136 63.9193 47.3009V49.7696C63.9193 50.6055 63.7495 51.1998 63.4099 51.5525C63.0703 51.9052 62.4825 52.0815 61.6466 52.0815H59.0996C58.2897 52.0815 57.7085 51.9052 57.3558 51.5525C57.0032 51.1998 56.8268 50.6055 56.8268 49.7696V37.8182C56.8268 36.9822 57.0032 36.3879 57.3558 36.0353C57.7085 35.6826 58.2897 35.5063 59.0996 35.5063H61.6466C62.4825 35.5063 63.0703 35.6826 63.4099 36.0353C63.7495 36.3879 63.9193 36.9822 63.9193 37.8182V38.7586C63.9193 39.3333 64.1936 39.6207 64.7422 39.6207H68.0729C68.6215 39.6207 68.8958 39.3333 68.8958 38.7586V37.5831C68.8958 35.5455 68.3341 33.9715 67.2108 32.8613C66.0875 31.751 64.5071 31.1959 62.4695 31.1959H58.3159C56.2521 31.1959 54.6586 31.7445 53.5353 32.8417C52.412 33.9389 51.8503 35.5193 51.8503 37.5831V50.0047C51.8503 52.0684 52.412 53.6489 53.5353 54.7461C54.6586 55.8433 56.2521 56.3918 58.3159 56.3918H62.4695Z" fill="white"/>
<path d="M86.0354 56.3918C86.5579 56.3918 86.8191 56.1176 86.8191 55.569V52.9044C86.8191 52.3558 86.5579 52.0815 86.0354 52.0815H77.8458C77.5323 52.0815 77.3755 51.9378 77.3755 51.6505V46.2038C77.3755 45.9164 77.5323 45.7727 77.8458 45.7727H84.5464C85.095 45.7727 85.3693 45.4984 85.3693 44.9498V42.2853C85.3693 41.7367 85.095 41.4624 84.5464 41.4624H77.8458C77.5323 41.4624 77.3755 41.3187 77.3755 41.0313V35.9373C77.3755 35.6499 77.5323 35.5063 77.8458 35.5063H86.0354C86.5579 35.5063 86.8191 35.232 86.8191 34.6834V32.0188C86.8191 31.4702 86.5579 31.1959 86.0354 31.1959H73.2219C72.6733 31.1959 72.399 31.4702 72.399 32.0188V55.569C72.399 56.1176 72.6733 56.3918 73.2219 56.3918H86.0354Z" fill="white"/>
<path d="M106.702 31.1959C106.284 31.1959 106.036 31.3788 105.957 31.7445L101.764 45.5768H101.529L97.3757 31.7445C97.2451 31.3788 96.9969 31.1959 96.6312 31.1959H90.7926C90.244 31.1959 89.9697 31.4702 89.9697 32.0188V55.569C89.9697 56.1176 90.244 56.3918 90.7926 56.3918H94.0058C94.3454 56.3918 94.5674 56.3331 94.6719 56.2155C94.7764 56.098 94.8287 55.8824 94.8287 55.569V36.9561H94.9854L99.0606 50.1223C99.2174 50.6447 99.5439 50.906 100.04 50.906H103.332C103.828 50.906 104.155 50.6447 104.311 50.1223L108.308 36.9953H108.465V55.569C108.465 56.1176 108.739 56.3918 109.288 56.3918H112.501C113.05 56.3918 113.324 56.1176 113.324 55.569V32.0188C113.324 31.4702 113.05 31.1959 112.501 31.1959H106.702Z" fill="white"/>
<path d="M116.592 49.9655C116.592 52.0031 117.166 53.5836 118.316 54.7069C119.465 55.8302 121.059 56.3918 123.096 56.3918H127.367C129.405 56.3918 130.999 55.8302 132.148 54.7069C133.297 53.5836 133.872 52.0031 133.872 49.9655V48.6332C133.872 47.0658 133.565 45.7793 132.951 44.7735C132.337 43.7678 131.573 43.069 130.659 42.6771C128.935 41.9718 126.963 41.5277 124.742 41.3448C122.6 41.162 121.529 40.4566 121.529 39.2288V38.4843C121.529 37.3088 121.718 36.5185 122.097 36.1136C122.476 35.7087 123.201 35.5063 124.272 35.5063H125.8C126.845 35.5063 127.563 35.6891 127.955 36.0549C128.347 36.4206 128.543 37.1129 128.543 38.1317V38.3668C128.543 38.9154 128.817 39.1897 129.366 39.1897H132.697C133.245 39.1897 133.519 38.9154 133.519 38.3668V37.6223C133.519 35.5846 132.945 34.0042 131.795 32.8809C130.646 31.7576 129.039 31.1959 126.976 31.1959H123.057C121.019 31.1959 119.426 31.7576 118.277 32.8809C117.127 34.0042 116.552 35.5846 116.552 37.6223V38.9937C116.552 40.6134 116.859 41.9391 117.473 42.971C118.087 44.0029 118.851 44.6951 119.766 45.0478C120.68 45.4005 121.666 45.6878 122.724 45.9099C123.782 46.1319 124.768 46.2821 125.682 46.3605C126.597 46.4389 127.361 46.6805 127.975 47.0854C128.589 47.4903 128.896 48.0716 128.896 48.8292V49.2994C128.896 50.3704 128.693 51.1019 128.288 51.4937C127.883 51.8856 127.171 52.0815 126.153 52.0815H124.311C123.266 52.0815 122.548 51.8986 122.156 51.5329C121.764 51.1672 121.568 50.488 121.568 49.4953V49.1818C121.568 48.6332 121.294 48.3589 120.745 48.3589H117.414C116.866 48.3589 116.592 48.6332 116.592 49.1818V49.9655Z" fill="white"/>
</svg>
