<svg width="163" height="69" viewBox="0 0 163 69" fill="none" xmlns="http://www.w3.org/2000/svg">
<path d="M88.982 8.9081V6.63752C88.982 2.4748 87.0268 0.393433 83.1164 0.393433H77.8657C73.9552 0.393433 72 2.4748 72 6.63752V12.7397C72 16.9024 73.9552 18.9838 77.8657 18.9838H82.123C82.3753 18.9838 82.5881 19.0784 82.7616 19.2676C82.935 19.4568 83.0218 19.6776 83.0218 19.9299V25.9374C83.0218 26.1897 82.935 26.4105 82.7616 26.5997C82.5881 26.7889 82.3753 26.8835 82.123 26.8835H79.1902C78.9379 26.8835 78.725 26.7889 78.5516 26.5997C78.3781 26.4105 78.2914 26.1897 78.2914 25.9374V22.5316H72V25.7009C72 29.8636 73.9552 31.945 77.8657 31.945H83.4475C87.3579 31.945 89.3132 29.8636 89.3132 25.7009V19.1257C89.3132 15.026 87.3579 12.9447 83.4475 12.8816H79.1902C78.9379 12.8816 78.725 12.787 78.5516 12.5978C78.3781 12.4086 78.2914 12.1878 78.2914 11.9355V6.49561C78.2914 6.24332 78.3781 6.02257 78.5516 5.83336C78.725 5.64414 78.9379 5.54953 79.1902 5.54953H81.7919C82.0442 5.54953 82.257 5.64414 82.4305 5.83336C82.6039 6.02257 82.6906 6.24332 82.6906 6.49561V8.9081H88.982Z" fill="white"/>
<path d="M105.666 0.866455H93.698V31.4719H100.321V19.4568H105.666C109.576 19.4568 111.531 17.3754 111.531 13.2127V7.11054C111.531 2.94782 109.576 0.866455 105.666 0.866455ZM104.909 13.9696C104.909 14.2219 104.822 14.4426 104.649 14.6318C104.475 14.821 104.262 14.9157 104.01 14.9157H100.321V5.40761H104.01C104.262 5.40761 104.475 5.50222 104.649 5.69143C104.822 5.88064 104.909 6.1014 104.909 6.35368V13.9696Z" fill="white"/>
<path d="M121.546 0.866455H114.923V31.4719H121.546V0.866455Z" fill="white"/>
<path d="M137.946 26.4578C137.946 26.7101 137.859 26.9308 137.686 27.12C137.512 27.3092 137.299 27.4038 137.047 27.4038H134.067C133.815 27.4038 133.602 27.3092 133.428 27.12C133.255 26.9308 133.168 26.7101 133.168 26.4578V5.83336C133.168 5.58107 133.255 5.36032 133.428 5.1711C133.602 4.98189 133.815 4.88728 134.067 4.88728H137.047C137.299 4.88728 137.512 4.98189 137.686 5.1711C137.859 5.36032 137.946 5.58107 137.946 5.83336V9.52304H144.237V6.63752C144.237 2.4748 142.282 0.393433 138.372 0.393433H132.411C128.501 0.393433 126.546 2.4748 126.546 6.63752V25.7009C126.546 29.8636 128.501 31.945 132.411 31.945H138.372C142.282 31.945 144.237 29.8636 144.237 25.7009V21.7274H137.946V26.4578Z" fill="white"/>
<path d="M154.914 25.9847V18.6526H161.773V13.4492H154.914V6.25908H162.246V0.866455H148.292V31.4719H162.246V25.9847H154.914Z" fill="white"/>
<path d="M81.1934 55.8664H83.6532V63.0093C83.6532 63.2616 83.5665 63.4823 83.3931 63.6715C83.2196 63.8607 83.0068 63.9554 82.7545 63.9554H79.7743C79.5221 63.9554 79.3092 63.8607 79.1357 63.6715C78.9623 63.4823 78.8756 63.2616 78.8756 63.0093V42.3849C78.8756 42.1326 78.9623 41.9118 79.1357 41.7226C79.3092 41.5334 79.5221 41.4388 79.7743 41.4388H82.7545C83.0068 41.4388 83.2196 41.5334 83.3931 41.7226C83.5665 41.9118 83.6532 42.1326 83.6532 42.3849V46.0746H89.9446V43.189C89.9446 39.0263 87.9894 36.9449 84.079 36.9449H78.1187C74.2083 36.9449 72.2531 39.0263 72.2531 43.189V62.2524C72.2531 66.4151 74.2083 68.4965 78.1187 68.4965H84.079C87.9894 68.4965 89.9446 66.4151 89.9446 62.2524V50.9941H81.1934V55.8664Z" fill="white"/>
<path d="M100.29 62.5362V55.2042H107.149V50.0008H100.29V42.8106H107.622V37.418H93.6671V68.0235H107.622V62.5362H100.29Z" fill="white"/>
<path d="M118.109 68.0235V42.6214C118.109 42.3691 118.196 42.1484 118.37 41.9591C118.543 41.7699 118.756 41.6753 119.008 41.6753H121.563C121.815 41.6753 122.028 41.7699 122.201 41.9591C122.375 42.1484 122.461 42.3691 122.461 42.6214V68.0235H129.084V42.6214C129.084 42.3691 129.171 42.1484 129.344 41.9591C129.517 41.7699 129.73 41.6753 129.983 41.6753H132.537C132.789 41.6753 133.002 41.7699 133.176 41.9591C133.349 42.1484 133.436 42.3691 133.436 42.6214V68.0235H140.058V43.189C140.058 39.0263 138.103 36.9449 134.193 36.9449H130.692C128.327 36.9449 126.687 37.7018 125.773 39.2155C124.795 37.7018 123.155 36.9449 120.853 36.9449H117.352C113.442 36.9449 111.487 39.0263 111.487 43.189V68.0235H118.109Z" fill="white"/>
<path d="M161.662 45.4596V43.189C161.662 39.0263 159.706 36.9449 155.796 36.9449H150.545C146.635 36.9449 144.68 39.0263 144.68 43.189V49.2912C144.68 53.4539 146.635 55.5353 150.545 55.5353H154.803C155.055 55.5353 155.268 55.6299 155.441 55.8191C155.615 56.0083 155.701 56.2291 155.701 56.4814V62.4889C155.701 62.7412 155.615 62.962 155.441 63.1512C155.268 63.3404 155.055 63.435 154.803 63.435H151.87C151.617 63.435 151.405 63.3404 151.231 63.1512C151.058 62.962 150.971 62.7412 150.971 62.4889V59.0831H144.68V62.2524C144.68 66.4151 146.635 68.4965 150.545 68.4965H156.127C160.037 68.4965 161.993 66.4151 161.993 62.2524V55.6772C161.993 51.5776 160.037 49.4962 156.127 49.4331H151.87C151.617 49.4331 151.405 49.3385 151.231 49.1493C151.058 48.9601 150.971 48.7393 150.971 48.487V43.0471C150.971 42.7948 151.058 42.5741 151.231 42.3849C151.405 42.1957 151.617 42.101 151.87 42.101H154.471C154.724 42.101 154.937 42.1957 155.11 42.3849C155.283 42.5741 155.37 42.7948 155.37 43.0471V45.4596H161.662Z" fill="white"/>
<path d="M8.20857 9.04H61.8086C63.2852 9.04 64.4886 7.83668 64.4886 6.36V3.68C64.4886 2.20332 63.2852 1 61.8086 1H8.20857C6.73189 1 5.52857 2.20332 5.52857 3.68V6.36C5.52857 7.83668 6.73189 9.04 8.20857 9.04ZM69.0553 30.3996L64.4886 17.3185V14.4C64.4886 12.9233 63.2852 11.72 61.8086 11.72H8.20857C6.73189 11.72 5.52857 12.9233 5.52857 14.4V17.3185L0.967209 30.3996C0.967209 30.3996 0.92165 33.1439 3.68741 33.1439C4.05924 33.1601 4.42826 33.0727 4.75334 32.8914C5.07842 32.7102 5.3468 32.4423 5.52857 32.1175V65.32C5.52857 66.7967 6.73189 68 8.20857 68H43.0486V41.2H56.4486V68H61.8086C63.2852 68 64.4886 66.7967 64.4886 65.32V32.1148C64.8504 32.6669 65.4802 33.1439 66.6272 33.1439C69.393 33.1439 69.0553 30.3996 69.0553 30.3996ZM26.1994 30.6515C26.1796 31.6343 25.7789 32.571 25.0818 33.2641C24.3848 33.9572 23.4458 34.3525 22.463 34.3667C21.4801 34.381 20.5301 34.013 19.8132 33.3404C19.0964 32.6679 18.6687 31.7432 18.6204 30.7614C18.623 30.6649 18.6257 30.5738 18.623 30.5148C18.6261 30.5035 18.6279 30.4918 18.6284 30.48H18.623L18.6177 30.3996L20.4052 19.76H27.1454L26.1833 30.3996L26.1887 30.48H26.1806C26.1833 30.5363 26.1994 30.5926 26.1994 30.6515ZM9.79781 34.4464C8.79156 34.4457 7.82673 34.0456 7.11521 33.3341C6.40368 32.6226 6.00364 31.6578 6.00293 30.6515C6.00293 30.5926 6.01901 30.5363 6.02169 30.48H6.00829L6.01097 30.3996L9.17069 19.76H15.9109L13.5739 30.3996L13.5793 30.48H13.5739C13.5766 30.5363 13.5927 30.5926 13.5927 30.6515C13.5927 32.7446 11.8936 34.4464 9.79781 34.4464ZM35.0086 59.96H13.5686V41.2H35.0086V59.96ZM35.0113 34.4464C34.005 34.4457 33.0402 34.0456 32.3286 33.3341C31.6171 32.6226 31.2171 31.6578 31.2164 30.6515C31.2164 30.5926 31.2324 30.5363 31.2351 30.48H31.2271V30.3996L31.6371 19.76H38.3773L38.7874 30.3996V30.48H38.7847L38.7874 30.5148C38.7874 30.5524 38.7954 30.6194 38.8008 30.673C38.7958 31.675 38.3945 32.6343 37.6844 33.3414C36.9743 34.0484 36.0133 34.4457 35.0113 34.4464ZM47.6153 34.4464C46.6144 34.4457 45.6543 34.0496 44.944 33.3444C44.2337 32.6392 43.8309 31.6819 43.8231 30.681L43.8338 30.5363C43.8369 30.5177 43.8387 30.4989 43.8392 30.48H43.8338V30.3996L42.8717 19.76H49.6146L51.4021 30.3996L51.4102 30.48H51.3914C51.3941 30.5363 51.4102 30.5926 51.4102 30.6515C51.4102 32.7446 49.7111 34.4464 47.6153 34.4464ZM60.1765 34.4464C59.1985 34.4451 58.259 34.0655 57.5547 33.3871C56.8503 32.7087 56.4357 31.7841 56.3977 30.807C56.4379 30.5631 56.4432 30.3996 56.4432 30.3996L54.1062 19.76H60.8491L64.0142 30.3996V30.48H63.9553C63.9579 30.5363 63.974 30.5926 63.974 30.6515C63.9726 31.658 63.5719 32.6228 62.86 33.3343C62.148 34.0457 61.1829 34.4457 60.1765 34.4464Z" fill="white"/>
</svg>
