<svg width="285" height="285" viewBox="0 0 285 285" fill="none" xmlns="http://www.w3.org/2000/svg">
<rect width="285" height="285" rx="50" fill="#3292CB"/>
<path d="M102.931 192C118.358 188.37 130.699 175.848 130.699 159.877C130.699 126.12 79.5191 136.283 79.5191 106.882C79.5191 101.437 82.2414 95.2668 88.2305 92.9074V92C75.1633 95.4483 65.726 105.975 65.726 119.042C65.726 155.158 112.731 143.18 112.731 171.31C112.731 178.933 109.828 187.826 102.931 191.274V192ZM113.82 117.59C120.172 117.59 124.891 112.69 124.891 106.519C124.891 100.348 120.172 95.2668 113.82 95.2668C107.65 95.2668 102.568 100.348 102.568 106.519C102.568 112.69 107.65 117.59 113.82 117.59ZM76.2523 182.744C82.2414 182.744 87.1416 177.844 87.1416 171.673C87.1416 165.321 82.2414 160.421 76.2523 160.421C69.9002 160.421 65 165.321 65 171.673C65 177.844 69.9002 182.744 76.2523 182.744Z" fill="white"/>
<path d="M174.982 192C174.982 192 163.548 186.555 163.548 141.909C163.548 97.2632 174.982 92 174.982 92C174.982 92 137.958 105.43 137.958 142.635C137.958 179.84 174.982 192 174.982 192ZM209.283 125.938C215.454 125.938 220.354 121.038 220.354 115.049C220.354 108.878 215.454 103.978 209.283 103.978C203.294 103.978 198.212 108.878 198.212 115.049C198.212 121.038 203.294 125.938 209.283 125.938ZM193.857 192C198.212 180.929 202.024 177.844 211.461 177.844C214.728 177.844 217.632 178.57 220.354 180.022H220.535C220.354 133.016 220.535 156.61 220.535 147.354H198.757C198.757 176.936 193.857 192 193.857 192Z" fill="white"/>
</svg>
